<svg id="Capa_1" enable-background="new 0 0 512 512" height="512" viewBox="0 0 512 512" width="512" xmlns="http://www.w3.org/2000/svg"><path d="m489.589 241.94c-7.287-128.766-113.999-230.94-244.589-230.94-73.849 0-140.063 32.677-184.981 84.356 31.437 11.561 373.116 136.951 429.57 146.584z" fill="#ffc743"/><path d="m32.457 377.946c42.282 73.536 121.63 123.054 212.543 123.054s170.261-49.518 212.543-123.054z" fill="#74727f"/><path d="m223.575 377.946h-191.118c38.456 66.881 107.574 113.889 188.166 121.851-54.398-20.101-52.109-103.999 2.952-121.851z" fill="#5f5e6a"/><path d="m351.299 267.302c-51.896 0-93.965 42.07-93.965 93.965h187.93c0-51.895-42.07-93.965-93.965-93.965z" style="fill:none;stroke:#000;stroke-width:15;stroke-linecap:round;stroke-linejoin:round;stroke-miterlimit:10"/><path d="m506.456 256.174c-8.94-11.003-21.286-19.935-35.139-27.183-3.082 11.562-10.043 25.107-25.723 31.367-23.135 9.236-79.152-21.41-89.519-43.323-6.578-13.903 3.072-16.984 5.379-17.509-.31-.032-.622-.065-.919-.095-6.018-.612-11.621-3.239-16.037-7.374-21.454-20.089-46.449-37.573-71.267-52.317-63.894-37.96-138.525-53.565-212.271-45.444-7.887 8.969-15.118 18.528-21.643 28.587l-33.5 79.895c-3.799 17.136-5.817 34.942-5.817 53.222 0 39.566 9.392 76.933 26.047 110.016h468.733l12.285-17.255c2.38-3.342 3.659-7.344 3.659-11.447v-68.872c0-4.454-1.46-8.812-4.268-12.268z" fill="#6ad394"/><path d="m36.753 128.994 66.223-11.229c-8.925-15.175 3.098-24.312 4.705-25.44-15.541-.388-31.151.256-46.723 1.971-7.887 8.969-15.118 18.528-21.643 28.587z" fill="#59b37d"/><path d="m184.095 366.016c-4.739-2.257-11.751-3.909-21.569-4.749-83.087-7.112-89.871-59.934-89.871-98.423s38.667-45.034 38.667-45.034l-101.413-24.793-4.093 9.761c-3.798 17.136-5.816 34.942-5.816 53.222 0 39.566 9.392 76.933 26.047 110.016z" fill="#59b37d"/><path d="m441.165 361.267c0-48.993-39.86-88.853-88.853-88.853s-88.853 39.86-88.853 88.853c0 1.593.047 3.176.13 4.749h177.447c.083-1.573.129-3.155.129-4.749z" fill="#5f5e6a"/><path d="m344.772 366.016c-6.633-11.723-6.354-24.101-5.672-30.122.239-2.114-.868-4.1-2.721-5.144-5.003-2.819-5.615-7.104-5.278-10.14.233-2.094-.826-4.136-2.674-5.147-6.987-3.825-7.853-10.23-7.583-14.309.14-2.121-1.007-4.135-2.921-5.059-4.751-2.295-6.228-6.074-6.594-9.018-.18-1.449-.962-2.684-2.067-3.512-27.293 15.181-45.804 44.32-45.804 77.704 0 1.593.047 3.176.13 4.749h81.184z" fill="#21212b"/><path d="m236.046 377.945c-5.284 0-9.567-4.283-9.567-9.566v-142.055c0-5.283 4.283-9.567 9.567-9.567s9.567 4.283 9.567 9.567v142.055c0 5.283-4.283 9.566-9.567 9.566z" fill="#59b37d"/><path d="m44.459 252.878c-.449 0-.903-.032-1.361-.097l-28.608-4.074c-5.231-.745-8.867-5.589-8.122-10.82.746-5.23 5.591-8.864 10.82-8.122l28.608 4.074c5.23.745 8.867 5.589 8.122 10.82-.679 4.773-4.773 8.219-9.459 8.219z" fill="#168c80"/><path d="m354.599 217.26c10.5 22.193 67.233 53.231 90.664 43.877 16.029-6.399 23.068-20.318 26.144-32.098-39.084-20.479-90.229-27.507-110.874-29.609.001 0-13.461 1.921-5.934 17.83z" fill="#d6d6d0"/><path d="m426.068 211.64c-8.544 5.501-14.208 15.089-14.208 26.007 0 9.554 4.335 18.092 11.143 23.764 8.651 1.876 16.473 2.037 22.26-.274 16.029-6.399 23.068-20.318 26.144-32.098-14.201-7.442-29.994-13.1-45.339-17.399z" fill="#eeefeb"/><path d="m510.725 287.524-72.047 22.048c-5.052 1.546-7.895 6.895-6.349 11.948 1.26 4.119 5.05 6.769 9.144 6.769.927 0 1.871-.136 2.803-.421l66.449-20.335z" fill="#7af4ab"/><path d="m496.693 361.267h-472.977c5.187 10.883 11.148 21.325 17.821 31.251h455.156c8.419 0 15.307-6.888 15.307-15.306v-.638c0-8.419-6.888-15.307-15.307-15.307z" fill="#4b4a55"/><path d="m351.299 431.801c-38.892 0-70.534-31.642-70.534-70.534s31.642-70.534 70.534-70.534 70.534 31.642 70.534 70.534c0 38.893-31.642 70.534-70.534 70.534z" fill="#21212b"/><path d="m351.299 431.801c14.76 0 28.47-4.566 39.809-12.347-11.218-2.222-12.69-10.112-12.457-15.023.106-2.231-1.224-4.253-3.279-5.128-4.983-2.124-5.982-6.283-5.995-9.231-.009-2.088-1.217-3.957-3.106-4.848-28.34-13.361-28.27-39.618-27.17-49.33.239-2.114-.868-4.1-2.721-5.144-5.003-2.819-5.615-7.104-5.278-10.14.233-2.094-.826-4.136-2.674-5.147-6.987-3.825-7.853-10.23-7.583-14.309.074-1.114-.215-2.193-.776-3.105-23.266 11.54-39.303 35.537-39.303 63.22-.001 38.891 31.641 70.532 70.533 70.532z"/><circle cx="351.299" cy="361.267" fill="#d6d6d0" r="39.818"/><path d="m351.299 401.085c7.172 0 13.901-1.916 19.72-5.248-1.282-1.904-1.635-4.04-1.642-5.765-.009-2.088-1.217-3.957-3.106-4.848-28.34-13.361-28.27-39.618-27.17-49.33.239-2.114-.868-4.1-2.721-5.144-2.191-1.234-3.54-2.75-4.336-4.319-12.25 6.798-20.562 19.863-20.562 34.837-.001 21.955 17.861 39.817 39.817 39.817z" fill="#c6c6c1"/><path d="m351.299 409.42c-26.551 0-48.152-21.601-48.152-48.152s21.601-48.152 48.152-48.152 48.152 21.601 48.152 48.152-21.601 48.152-48.152 48.152zm0-79.636c-17.36 0-31.483 14.123-31.483 31.483s14.123 31.483 31.483 31.483 31.483-14.123 31.483-31.483-14.123-31.483-31.483-31.483z" fill="#eeefeb"/><path d="m303.146 361.267c0 26.551 21.601 48.152 48.152 48.152 9.807 0 18.934-2.954 26.551-8.008-.576-.917-1.431-1.662-2.478-2.108-4.983-2.124-5.982-6.283-5.995-9.231-.004-.927-.256-1.804-.686-2.578-4.987 3.318-10.966 5.256-17.391 5.256-17.36 0-31.483-14.123-31.483-31.483 0-12.733 7.603-23.716 18.503-28.671-.475-.748-1.13-1.39-1.94-1.846-5.003-2.819-5.615-7.104-5.278-10.14.11-.986-.076-1.957-.487-2.818-16.227 7.752-27.468 24.324-27.468 43.475z" fill="#d6d6d0"/><path d="m51.895 209.346-7.471-87.212-5.078.675c-15.624 24.074-27.129 51.063-33.533 79.974z" fill="#21212b"/><path d="m315.672 200.575c-15.806-13.338-34.4-26.384-55.472-38.904-47.661-28.316-102.655-43.383-158.471-43.91l8.533 99.899 150.569 21.446c1.587.226 3.205-.044 4.633-.774l48.717-24.9c4.943-2.527 5.734-9.277 1.491-12.857z" fill="#21212b"/><path d="m43.285 122.285 7.245 86.866 30.396 4.329-7.898-94.698c-5.509.443-11.016 1.012-16.514 1.743z" fill="#5f5e6a"/><path d="m72.654 118.796 8.129 94.665 30.537 4.349-8.344-100.045c-9.967-.132-20.335.228-30.322 1.031z" fill="#363540"/><path d="m226.48 234.213 34.35 4.893c1.587.226 3.205-.044 4.633-.774l48.717-24.9c4.943-2.527 5.734-9.277 1.491-12.857-15.806-13.338-34.4-26.384-55.472-38.903.001 0 22.606 49.443-33.719 72.541z" fill="#363540"/><path d="m253.04 195.741h-21.411c-5.866 0-10.665 4.799-10.665 10.665v34.72c0 5.866 4.799 10.665 10.665 10.665h21.411c13.246 0 24.084-10.838 24.084-24.084v-7.883c0-13.245-10.838-24.083-24.084-24.083z" fill="#eeefeb"/><path d="m239.275 227.708v-7.883c0-11.476 8.137-21.138 18.924-23.518-1.664-.367-3.39-.566-5.16-.566h-21.411c-5.866 0-10.665 4.799-10.665 10.665v34.72c0 5.866 4.799 10.665 10.665 10.665h21.411c1.77 0 3.496-.199 5.16-.566-10.787-2.378-18.924-12.041-18.924-23.517z" fill="#d6d6d0"/></svg>