<svg id="Capa_1" enable-background="new 0 0 512 512" height="512" viewBox="0 0 512 512" width="512" xmlns="http://www.w3.org/2000/svg"><path d="m252.227 351.429h218.492c12.415-29.329 19.281-61.577 19.281-95.429 0-135.31-109.69-245-245-245-127.691 0-232.548 97.691-243.953 222.408z" fill="#ffc743"/><path d="m477.057 334.778h-464.114c3.385 9.974 7.406 19.654 11.994 29.004h440.126c4.588-9.35 8.609-19.03 11.994-29.004z" fill="#eeefeb"/><path d="m62.495 361.533v57.9c44.856 50.061 109.997 81.567 182.505 81.567 97.522 0 181.73-56.984 221.16-139.467z" fill="#74727f"/><path d="m247.909 361.533h-185.414v57.9c44.856 50.061 109.997 81.567 182.505 81.567.986 0 1.969-.015 2.952-.027-54.658-27.01-53.56-112.187-.043-139.44z" fill="#5f5e6a"/><path d="m408.824 262.174c-56.982 0-103.176 46.193-103.176 103.176 0 56.982 46.193 103.175 103.176 103.175s103.176-46.193 103.176-103.175c0-56.983-46.193-103.176-103.176-103.176zm0 167.249c-35.387 0-64.074-28.687-64.074-64.074s28.687-64.074 64.074-64.074 64.074 28.687 64.074 64.074c0 35.388-28.687 64.074-64.074 64.074z" fill="#21212b"/><path d="m466.158 451.136c-14.719-2.394-17.137-12.5-17.24-18.452-.043-2.476-1.566-4.642-3.867-5.557-3.117-1.238-5.02-3.132-6.166-5.191-8.966 4.773-19.195 7.487-30.061 7.487-35.387 0-64.074-28.687-64.074-64.074 0-22.232 11.327-41.814 28.52-53.305l-21.35-32.766c-27.882 18.471-46.272 50.121-46.272 86.07 0 56.982 46.193 103.175 103.176 103.175 21.217.002 40.936-6.406 57.334-17.387z"/><path d="m408.824 439.44c-40.854 0-74.09-33.237-74.09-74.09s33.237-74.09 74.09-74.09 74.09 33.237 74.09 74.09-33.237 74.09-74.09 74.09z" fill="#4b4a55"/><path d="m408.824 439.44c14.074 0 27.244-3.947 38.463-10.789-.61-.652-1.367-1.178-2.237-1.523-6.541-2.599-7.779-8.076-7.754-11.936.015-2.407-1.476-4.585-3.716-5.467-8.043-3.166-9.332-9.562-9.179-13.881.087-2.447-1.361-4.633-3.617-5.586-10.695-4.514-7.897-17.412-7.897-17.412l-45.068-69.165c-19.927 13.294-33.085 35.971-33.085 61.67 0 40.852 33.237 74.089 74.09 74.089z" fill="#363540"/><ellipse cx="408.824" cy="365.35" fill="#d6d6d0" rx="54.058" ry="54.058" transform="matrix(.94 -.343 .343 .94 -100.415 162.142)"/><path d="m408.824 419.408c10.02 0 19.406-2.75 27.46-7.521-.651-.956-1.584-1.722-2.704-2.163-8.043-3.166-9.332-9.562-9.179-13.881.087-2.447-1.361-4.633-3.617-5.586-10.695-4.514-7.897-17.412-7.897-17.412l-34.138-52.391c-14.453 9.713-23.984 26.212-23.984 44.896.001 29.807 24.251 54.058 54.059 54.058z" fill="#c6c6c1"/><path d="m61.423 332.3-47.497 5.267c1.686 4.777 3.52 9.484 5.488 14.12l14.052 27.964-.001.001c2.52 4.303 5.164 8.526 7.934 12.656h69.948z" fill="#4b4a55"/><path d="m408.824 334.575c-16.97 0-30.775 13.805-30.775 30.775 0 16.969 13.805 30.774 30.775 30.774 16.969 0 30.774-13.805 30.774-30.774.001-16.97-13.805-30.775-30.774-30.775z" fill="#4b4a55"/><path d="m408.824 396.124c5.281 0 10.256-1.339 14.603-3.692-.632-.944-1.539-1.708-2.643-2.175-10.695-4.514-7.897-17.412-7.897-17.412l-21.428-32.886c-8.09 5.551-13.41 14.859-13.41 25.391.001 16.969 13.806 30.774 30.775 30.774z" fill="#363540"/><path d="m248.666 172.528-5.437 9.855c-1.465 2.655-2.036 5.711-1.631 8.716l3.925 29.052c1.547 11.45 1.094 23.081-1.338 34.376l-21.986 102.112c-4.45 20.667-23.024 35.668-44.166 35.668h-136.635c6.68 9.958 14.067 19.402 22.096 28.254 25.525-.007 62.088-.011 114.538.004 34.366 0 64.557-24.383 71.792-57.979l21.726-100.907c2.314-10.748 7.774-20.564 15.684-28.199l9.314-8.99c.011-.011.021-.023.032-.034l-38.489-59.252c-4.036.924-7.42 3.69-9.425 7.324z" fill="#eeefeb"/><path d="m179.044 97.964-13.546-27.342-35.258 34.29c-6.154 5.984-6.29 15.824-.306 21.977 5.988 6.158 15.829 6.286 21.977.306l28.274-27.497c-.437-.523-.826-1.097-1.141-1.734z" fill="#363540"/><path d="m289.55 149.912c0 19.329 30.441 34.998 67.991 34.998v-69.996c-37.55 0-67.991 15.669-67.991 34.998z" fill="#d6d6d0"/><path d="m289.55 149.912c0 19.329 30.441 34.998 67.991 34.998v-32.16c-30.488 0-56.287-5.583-64.914-13.276-1.998 3.297-3.077 6.803-3.077 10.438z" fill="#c6c6c1"/><path d="m357.542 194.926c-5.531 0-10.016-4.484-10.016-10.016v-69.996c0-5.532 4.484-10.016 10.016-10.016 5.531 0 10.016 4.484 10.016 10.016v69.996c-.001 5.532-4.485 10.016-10.016 10.016z" fill="#eeefeb"/><path d="m357.542 162.192c-5.531 0-10.016-4.484-10.016-10.016v32.734c0 5.531 4.484 10.016 10.016 10.016 5.531 0 10.016-4.484 10.016-10.016v-32.734c-.001 5.532-4.485 10.016-10.016 10.016z" fill="#d6d6d0"/><path d="m469.36 258.604c-23.282-15.505-61.992-32.085-120.428-8.398l27.332 42.077c17.684-7.484 36.449-9.001 54.009-5.399 16.058 3.294 32.528-3.223 41.439-16.983 2.445-3.776 1.393-8.804-2.352-11.297z" fill="#eb5793"/><path d="m328.638 267.324c-.75-.297-1.486-.631-2.197-1.022-16.825 17.097-28.534 39.08-32.908 63.376 0 0-4.707 18.606-14.101 34.041-4.267 7.011 1.314 15.894 9.491 15.187 16.715-1.444 31.016-12.9 35.665-29.02 5.034-17.455 15.153-32.906 28.775-44.498z" fill="#e7387f"/><path d="m353.363 305.388-24.725-38.064c-.75-.297-1.486-.631-2.197-1.022-14.443 14.677-25.101 32.961-30.6 53.212 9.315-.942 26.182.754 30.863 23.941 5.496-14.817 14.736-27.92 26.659-38.067z" fill="#e20a62"/><path d="m205.923 238.044c-2.328.366-4.726.572-7.198.572h-54.035v153.691h33.343c21.142 0 39.716-15.001 44.166-35.668l18.744-87.054z" fill="#363540"/><path d="m232.78 307.498 8.163-37.913-35.02-31.541c-2.328.366-4.726.572-7.198.572h-42.426z" fill="#4b4a55"/><path d="m91.317 236.497c-3.788 0-7.34-1.552-9.925-4.271l-4.256 2.567c.356 4.945-2.092 9.749-6.428 12.314l-18.548 10.977c8.019.772 14.311 7.544 14.311 15.762v46.892c0 4.563-1.951 8.669-5.048 11.562l5.757 24.339c4.45 20.668 23.024 35.668 44.166 35.668h33.343v-155.81z" fill="#21212b"/><path d="m66.471 273.846v25.114l69.354-62.464h-44.508c-3.788 0-7.34-1.552-9.925-4.271l-4.256 2.567c.356 4.945-2.092 9.749-6.428 12.314l-18.548 10.978c8.019.772 14.311 7.544 14.311 15.762z" fill="#4b4a55"/><ellipse cx="144.69" cy="292.89" fill="#eeefeb" rx="45.212" ry="27.813"/><path d="m54.518 256.325-52.521 31.083c2.273 17.763 6.46 34.926 12.326 51.289h36.309c9.877 0 17.959-8.081 17.959-17.959v-46.893c0-8.542-6.049-15.73-14.073-17.52z" fill="#eeefeb"/><path d="m14.323 338.697h36.309c-31.298-20.156-27.495-45.382-22.874-57.987 1.019-2.781.879-5.799-.287-8.378l-25.474 15.076c2.273 17.763 6.46 34.926 12.326 51.289z" fill="#d6d6d0"/><path d="m417.455 351.345-68.159-104.93c.05 6.161-2.931 12.216-8.481 15.821-5.348 3.476-11.797 3.847-17.269 1.598l67.843 104.443c4.674 7.196 14.301 9.243 21.499 4.567 7.198-4.675 9.243-14.3 4.567-21.499z" fill="#eeefeb"/><path d="m240.918 82.852c-7.957-12.25-20.839-20.288-35.34-22.053-4.828-.588-9.644-.442-14.319.361l14.043 28.346c4.872 1.366 9.117 4.426 11.919 8.738l27.307 42.04c.518-5.496 3.437-10.713 8.427-13.953 4.493-2.918 9.768-3.644 14.596-2.477z" fill="#eeefeb"/><path d="m236.049 76.54c-7.881-8.678-18.635-14.3-30.471-15.741-4.828-.588-9.644-.442-14.319.361l14.043 28.346c4.872 1.366 9.117 4.426 11.919 8.738-3.63-25.129 18.754-21.715 18.828-21.704z" fill="#d6d6d0"/><path d="m316.842 259.997-71.586-110.203c-5.738-8.834-3.229-20.647 5.606-26.386 8.833-5.736 20.649-3.228 26.385 5.605l71.586 110.204c5.738 8.834 3.229 20.647-5.606 26.386-8.852 5.753-20.66 3.209-26.385-5.606z" fill="#d6d6d0"/><path d="m303.956 205.328c7.177-4.661 16.136-4.361 22.877.021l-49.586-76.335c-5.736-8.833-17.552-11.342-26.385-5.605-8.834 5.738-11.344 17.552-5.606 26.386l49.36 75.987c-1.066-7.802 2.299-15.881 9.34-20.454z" fill="#c6c6c1"/><path d="m204.07 84.166-15.875-32.043c-3.809-7.692-13.137-10.841-20.825-7.026-7.692 3.81-10.838 13.134-7.027 20.825l15.875 32.043c2.157 4.353 7.434 6.134 11.788 3.977l12.087-5.988c4.353-2.158 6.134-7.435 3.977-11.788z" fill="#21212b"/><path d="m58.408 221.445c-12.194 4.329-32.366 9.867-57.251 10.728-.758 7.841-1.157 15.787-1.157 23.827 0 11.545.817 22.898 2.362 34.018l69.426-41.088c7.235-4.282 9.719-13.64 5.394-20.99-3.768-6.404-11.772-8.98-18.774-6.495z" fill="#363540"/><path d="m24.344 268.348c-19.409-15.125-5.078-37.656-5.078-37.656l-.004-.001c-5.692.733-11.742 1.262-18.105 1.482-.758 7.841-1.157 15.787-1.157 23.827 0 11.545.817 22.898 2.362 34.018l25.867-15.309c-.487-2.467-1.812-4.745-3.885-6.361z" fill="#21212b"/><g fill="#4b4a55"><path d="m199.801 343.076-14.072-12.674c-4.111-3.702-4.442-10.035-.739-14.145 3.7-4.11 10.034-4.442 14.145-.739l14.072 12.674c4.111 3.702 4.441 10.035.739 14.145-3.702 4.111-10.036 4.441-14.145.739z"/><path d="m180.598 374.913-21.285-19.171c-4.111-3.702-4.441-10.035-.739-14.145 3.7-4.11 10.034-4.442 14.145-.739l21.285 19.171c4.111 3.702 4.441 10.035.74 14.145-3.703 4.11-10.038 4.44-14.146.739z"/><circle cx="106.587" cy="351.448" r="26.686"/></g><path d="m106.587 324.761c-14.738 0-26.686 11.948-26.686 26.686 0 9.763 5.245 18.297 13.069 22.949l13.618-19.814v-16.849c-6.894-6.892-.001-12.972-.001-12.972z" fill="#363540"/><path d="m96.694 341.454c-6.986 6.41-16.055 9.94-25.535 9.94h-51.893c4.13 9.762 8.888 19.191 14.199 28.257h37.693c16.574 0 32.427-6.172 44.639-17.377 5.749-5.275 6.134-14.213.858-19.962-5.274-5.749-14.213-6.136-19.961-.858z" fill="#d6d6d0"/><path d="m235.029 167.549c-6.697-8.876-15.837-15.729-28.306-18.224-40.877-8.178-104.77 42.999-126.497 61.734-4.629 3.992-6.546 10.292-4.951 16.192 1.877 6.942 8.175 11.763 15.366 11.763h107.883c36.774.001 58.652-42.11 36.505-71.465z" fill="#eb5793"/><path d="m162.353 166.126c4.917-6.517 11.087-11.993 18.817-15.61-38.245 9.043-83.377 45.395-100.944 60.543-4.629 3.992-6.546 10.292-4.951 16.192 1.877 6.942 8.175 11.763 15.366 11.763h94.899c-29.026-9.727-43.263-46.278-23.187-72.888z" fill="#e7387f"/><path d="m197.316 387.922c-5.902 2.814-12.457 4.385-19.283 4.385h-136.635c6.68 9.958 14.067 19.402 22.096 28.254 25.525-.007 62.088-.011 114.538.004 11.062 0 21.685-2.538 31.256-7.085-19.954-6.021-11.973-25.556-11.972-25.558z" fill="#d6d6d0"/><path d="m19.266 351.394c4.13 9.762 8.888 19.191 14.199 28.257h37.693c2.542 0 5.064-.163 7.562-.449-25.628-8.814-12.781-27.808-12.781-27.808z" fill="#c6c6c1"/><path d="m144.69 265.077c-24.97 0-45.212 12.452-45.212 27.813s20.242 27.813 45.212 27.813c-10.942-10.942 0-18.474 0-18.474v-18.679c-11.336-8.866 0-18.473 0-18.473z" fill="#d6d6d0"/><path d="m156.559 283.55h-23.738c-5.158 0-9.339 4.181-9.339 9.339 0 5.159 4.181 9.34 9.339 9.34h23.738c5.158 0 9.339-4.181 9.339-9.34 0-5.157-4.181-9.339-9.339-9.339z" fill="#c6c6c1"/></svg>