<svg id="svg" version="1.1" xmlns="http://www.w3.org/2000/svg" xmlns:xlink="http://www.w3.org/1999/xlink" width="400" height="400" viewBox="0, 0, 400,400"><g id="svgg"><path id="path0" d="M157.600 32.982 C 142.172 36.643,132.034 50.320,133.941 64.897 C 134.486 69.063,135.838 79.755,136.432 84.600 C 136.648 86.360,136.999 89.150,137.213 90.800 C 137.427 92.450,137.775 95.240,137.987 97.000 C 138.336 99.903,138.899 104.436,140.023 113.400 C 140.244 115.160,140.599 117.950,140.813 119.600 C 141.027 121.250,141.375 124.040,141.587 125.800 C 142.106 130.112,143.128 138.277,143.639 142.200 C 143.869 143.960,144.211 146.660,144.400 148.200 C 144.589 149.740,144.936 152.530,145.172 154.400 C 145.407 156.270,145.875 160.050,146.211 162.800 C 146.547 165.550,146.997 169.195,147.211 170.900 C 147.572 173.773,147.795 175.521,148.836 183.600 C 149.048 185.250,149.477 188.760,149.789 191.400 C 150.101 194.040,150.464 197.100,150.596 198.200 C 150.998 201.551,151.695 204.812,152.057 205.035 C 152.246 205.152,152.400 205.552,152.401 205.924 C 152.402 207.528,155.396 210.980,158.017 212.400 L 160.600 213.800 204.200 213.658 L 247.800 213.516 269.800 257.458 L 291.800 301.400 294.142 303.025 C 298.075 305.754,302.404 306.470,306.486 305.067 C 310.904 303.549,354.998 280.877,355.124 280.059 C 355.229 279.378,345.471 259.588,344.297 258.100 C 343.549 257.153,342.420 257.628,325.555 265.980 C 314.068 271.669,308.486 274.237,308.173 273.977 C 307.919 273.767,302.841 263.921,296.888 252.097 C 263.295 185.375,266.165 190.621,262.154 188.591 L 259.800 187.400 218.000 187.200 L 176.200 187.000 175.740 183.000 C 175.487 180.800,175.049 177.200,174.768 175.000 C 174.486 172.800,174.244 170.370,174.228 169.600 L 174.200 168.200 209.932 168.000 C 244.720 167.805,245.680 167.779,246.232 167.024 C 246.914 166.091,247.073 144.369,246.410 142.626 L 246.020 141.600 208.710 141.594 C 188.189 141.591,171.205 141.456,170.966 141.294 C 170.452 140.946,169.775 136.734,168.381 125.200 C 167.914 121.338,167.311 116.612,166.800 112.800 C 165.147 100.475,164.409 93.910,164.636 93.542 C 164.752 93.354,165.872 93.194,167.124 93.186 C 176.223 93.129,187.560 85.344,191.711 76.300 C 194.412 70.418,194.570 69.695,194.586 63.200 C 194.602 56.383,194.211 54.482,191.705 49.200 C 186.003 37.183,170.653 29.884,157.600 32.982 M126.800 148.376 C 125.810 148.764,124.370 149.319,123.600 149.610 C 117.167 152.038,101.141 161.648,97.600 165.201 C 97.490 165.311,96.680 166.012,95.800 166.759 C 92.683 169.405,88.962 173.071,86.000 176.414 C 84.350 178.276,82.910 179.890,82.800 180.000 C 81.297 181.503,74.961 190.834,72.577 195.055 C 66.088 206.546,63.170 215.284,60.442 231.400 C 58.373 243.622,59.128 259.167,62.451 272.800 C 62.907 274.670,63.373 276.697,63.486 277.305 C 63.599 277.913,63.851 278.508,64.046 278.629 C 64.241 278.749,64.400 279.251,64.400 279.744 C 64.400 280.237,64.544 280.811,64.719 281.020 C 64.895 281.229,65.361 282.390,65.754 283.600 C 67.653 289.439,73.346 300.369,77.526 306.200 C 78.314 307.300,79.778 309.212,80.780 310.449 C 81.781 311.686,83.222 313.486,83.981 314.449 C 107.586 344.372,153.593 358.454,192.776 347.748 C 213.452 342.099,236.011 326.622,248.959 309.202 C 249.859 307.991,250.689 306.910,250.804 306.800 C 251.423 306.205,255.315 299.811,256.525 297.400 C 258.543 293.379,262.640 283.844,264.234 279.457 L 264.795 277.915 255.739 259.657 C 245.939 239.899,245.997 240.000,244.381 240.000 C 242.871 240.000,242.800 240.353,242.800 247.909 C 242.800 251.562,242.606 255.643,242.369 256.976 C 241.522 261.740,241.112 263.835,240.551 266.261 C 239.969 268.778,238.639 273.167,238.024 274.600 C 237.835 275.040,237.451 276.030,237.171 276.800 C 232.110 290.688,220.012 304.932,206.195 313.272 C 202.218 315.672,195.138 319.200,194.298 319.200 C 194.002 319.200,193.589 319.366,193.380 319.569 C 192.641 320.287,184.630 322.706,179.400 323.790 C 170.750 325.584,155.792 325.605,148.600 323.835 C 148.160 323.727,146.552 323.343,145.027 322.982 C 137.558 321.215,129.418 317.638,122.400 313.037 C 120.310 311.667,118.330 310.281,118.000 309.957 C 117.670 309.633,117.011 309.099,116.535 308.771 C 106.709 301.992,95.432 287.211,91.226 275.600 C 90.947 274.830,90.570 273.840,90.388 273.400 C 90.044 272.568,89.244 269.890,88.416 266.800 C 87.215 262.316,87.185 262.159,86.351 256.200 C 85.393 249.359,86.034 235.950,87.602 230.000 C 87.805 229.230,88.265 227.340,88.624 225.800 C 91.752 212.389,104.523 193.200,115.800 184.968 C 116.679 184.326,117.752 183.482,118.183 183.093 C 119.751 181.678,124.194 178.946,128.745 176.600 L 133.400 174.200 133.385 171.800 C 133.377 170.480,133.133 167.690,132.843 165.600 C 131.818 158.214,130.866 150.727,130.822 149.700 C 130.797 149.132,129.355 147.582,128.900 147.635 C 128.735 147.654,127.790 147.987,126.800 148.376 " stroke="none" fill="#050505" fill-rule="evenodd"></path><path id="path1" d="M180.100 0.271 C 178.065 0.359,176.400 0.603,176.400 0.815 C 176.400 1.027,175.140 1.200,173.600 1.200 C 172.060 1.200,170.800 1.353,170.800 1.541 C 170.800 1.729,168.865 2.006,166.500 2.158 C 164.135 2.310,162.140 2.607,162.067 2.817 C 161.993 3.028,161.138 3.200,160.167 3.200 C 159.195 3.200,158.400 3.380,158.400 3.600 C 158.400 3.820,157.590 4.000,156.600 4.000 C 155.610 4.000,154.800 4.180,154.800 4.400 C 154.800 4.620,154.170 4.800,153.400 4.800 C 152.630 4.800,152.000 4.962,152.000 5.159 C 152.000 5.357,150.740 5.645,149.200 5.800 C 147.660 5.955,146.400 6.243,146.400 6.441 C 146.400 6.638,145.860 6.800,145.200 6.800 C 144.540 6.800,144.000 6.980,144.000 7.200 C 144.000 7.420,143.370 7.600,142.600 7.600 C 141.830 7.600,141.200 7.780,141.200 8.000 C 141.200 8.220,140.761 8.400,140.224 8.400 C 139.687 8.400,139.146 8.563,139.023 8.763 C 138.900 8.962,137.899 9.249,136.800 9.400 C 135.700 9.551,134.800 9.838,134.800 10.038 C 134.800 10.237,134.260 10.400,133.600 10.400 C 132.940 10.400,132.400 10.580,132.400 10.800 C 132.400 11.020,131.950 11.200,131.400 11.200 C 130.850 11.200,130.400 11.380,130.400 11.600 C 130.400 11.820,130.040 12.000,129.600 12.000 C 129.160 12.000,128.800 12.180,128.800 12.400 C 128.800 12.620,128.461 12.800,128.046 12.800 C 126.912 12.800,123.200 14.072,123.200 14.461 C 123.200 14.647,122.838 14.800,122.395 14.800 C 121.628 14.800,120.028 15.516,119.600 16.050 C 119.490 16.187,118.815 16.426,118.100 16.582 C 117.385 16.737,116.800 17.029,116.800 17.232 C 116.800 17.434,116.440 17.600,116.000 17.600 C 115.560 17.600,115.200 17.780,115.200 18.000 C 115.200 18.220,114.750 18.400,114.200 18.400 C 113.650 18.400,113.200 18.580,113.200 18.800 C 113.200 19.020,112.840 19.200,112.400 19.200 C 111.960 19.200,111.600 19.380,111.600 19.600 C 111.600 19.820,111.378 20.000,111.106 20.000 C 110.325 20.000,106.268 22.115,105.553 22.894 C 105.197 23.282,104.708 23.600,104.467 23.600 C 103.855 23.600,101.029 24.934,100.867 25.300 C 100.793 25.465,100.428 25.600,100.055 25.600 C 99.682 25.600,99.117 25.960,98.800 26.400 C 98.483 26.840,97.993 27.200,97.712 27.200 C 97.430 27.200,97.200 27.380,97.200 27.600 C 97.200 27.820,96.853 28.000,96.429 28.000 C 96.004 28.000,95.387 28.270,95.057 28.600 C 94.727 28.930,94.304 29.200,94.117 29.200 C 93.930 29.200,93.517 29.560,93.200 30.000 C 92.883 30.440,92.303 30.800,91.912 30.800 C 91.520 30.800,91.200 30.960,91.200 31.157 C 91.200 31.353,90.750 31.626,90.200 31.764 C 89.650 31.902,89.200 32.192,89.200 32.408 C 89.200 32.623,88.932 32.800,88.603 32.800 C 88.275 32.800,87.782 33.160,87.507 33.600 C 87.232 34.040,86.768 34.400,86.475 34.400 C 86.182 34.400,85.692 34.625,85.385 34.900 C 84.108 36.045,83.616 36.400,83.305 36.400 C 83.124 36.400,82.717 36.760,82.400 37.200 C 82.083 37.640,81.569 38.000,81.258 38.000 C 80.946 38.000,80.275 38.450,79.765 39.000 C 79.255 39.550,78.605 40.004,78.319 40.009 C 78.034 40.013,77.262 40.643,76.604 41.409 C 75.946 42.174,75.208 42.800,74.963 42.800 C 74.402 42.800,72.000 45.072,72.000 45.603 C 72.000 45.822,71.706 46.000,71.347 46.000 C 70.987 46.000,69.825 46.855,68.763 47.900 C 66.514 50.115,65.721 50.800,65.406 50.800 C 65.108 50.800,50.800 65.108,50.800 65.406 C 50.800 65.721,50.115 66.514,47.900 68.763 C 46.855 69.825,46.000 70.987,46.000 71.347 C 46.000 71.706,45.822 72.000,45.603 72.000 C 45.072 72.000,42.800 74.402,42.800 74.963 C 42.800 75.208,42.174 75.946,41.409 76.604 C 40.643 77.262,40.013 78.034,40.009 78.319 C 40.004 78.605,39.550 79.255,39.000 79.765 C 38.450 80.275,38.000 80.946,38.000 81.258 C 38.000 81.569,37.640 82.083,37.200 82.400 C 36.760 82.717,36.400 83.130,36.400 83.317 C 36.400 83.504,36.175 83.908,35.900 84.215 C 34.679 85.576,34.400 85.999,34.400 86.487 C 34.400 86.773,34.040 87.232,33.600 87.507 C 33.160 87.782,32.800 88.275,32.800 88.603 C 32.800 88.932,32.623 89.200,32.408 89.200 C 32.192 89.200,31.902 89.650,31.764 90.200 C 31.626 90.750,31.353 91.200,31.157 91.200 C 30.960 91.200,30.800 91.520,30.800 91.912 C 30.800 92.303,30.440 92.883,30.000 93.200 C 29.560 93.517,29.200 93.930,29.200 94.117 C 29.200 94.304,28.930 94.727,28.600 95.057 C 28.270 95.387,28.000 96.004,28.000 96.429 C 28.000 96.853,27.820 97.200,27.600 97.200 C 27.380 97.200,27.200 97.430,27.200 97.712 C 27.200 97.993,26.840 98.483,26.400 98.800 C 25.960 99.117,25.600 99.682,25.600 100.055 C 25.600 100.428,25.465 100.793,25.300 100.867 C 24.934 101.029,23.600 103.855,23.600 104.467 C 23.600 104.708,23.282 105.197,22.894 105.553 C 22.115 106.268,20.000 110.325,20.000 111.106 C 20.000 111.378,19.820 111.600,19.600 111.600 C 19.380 111.600,19.200 111.960,19.200 112.400 C 19.200 112.840,19.020 113.200,18.800 113.200 C 18.580 113.200,18.400 113.650,18.400 114.200 C 18.400 114.750,18.220 115.200,18.000 115.200 C 17.780 115.200,17.600 115.560,17.600 116.000 C 17.600 116.440,17.434 116.800,17.232 116.800 C 17.029 116.800,16.737 117.385,16.582 118.100 C 16.426 118.815,16.187 119.490,16.050 119.600 C 15.516 120.028,14.800 121.628,14.800 122.395 C 14.800 122.838,14.647 123.200,14.461 123.200 C 14.072 123.200,12.800 126.912,12.800 128.046 C 12.800 128.461,12.620 128.800,12.400 128.800 C 12.180 128.800,12.000 129.160,12.000 129.600 C 12.000 130.040,11.820 130.400,11.600 130.400 C 11.380 130.400,11.200 130.850,11.200 131.400 C 11.200 131.950,11.020 132.400,10.800 132.400 C 10.580 132.400,10.400 132.940,10.400 133.600 C 10.400 134.260,10.237 134.800,10.038 134.800 C 9.838 134.800,9.551 135.700,9.400 136.800 C 9.249 137.899,8.962 138.900,8.763 139.023 C 8.563 139.146,8.400 139.687,8.400 140.224 C 8.400 140.761,8.220 141.200,8.000 141.200 C 7.780 141.200,7.600 141.830,7.600 142.600 C 7.600 143.370,7.420 144.000,7.200 144.000 C 6.980 144.000,6.800 144.540,6.800 145.200 C 6.800 145.860,6.638 146.400,6.441 146.400 C 6.243 146.400,5.955 147.660,5.800 149.200 C 5.645 150.740,5.357 152.000,5.159 152.000 C 4.962 152.000,4.800 152.630,4.800 153.400 C 4.800 154.170,4.620 154.800,4.400 154.800 C 4.180 154.800,4.000 155.610,4.000 156.600 C 4.000 157.590,3.820 158.400,3.600 158.400 C 3.380 158.400,3.200 159.195,3.200 160.167 C 3.200 161.138,3.028 161.993,2.817 162.067 C 2.607 162.140,2.310 164.135,2.158 166.500 C 2.006 168.865,1.729 170.800,1.541 170.800 C 1.353 170.800,1.200 172.045,1.200 173.567 C 1.200 175.424,1.036 176.388,0.700 176.500 C -0.032 176.744,-0.032 223.256,0.700 223.500 C 1.036 223.612,1.200 224.576,1.200 226.433 C 1.200 227.955,1.358 229.200,1.552 229.200 C 1.746 229.200,2.033 231.090,2.191 233.400 C 2.348 235.710,2.640 237.701,2.839 237.824 C 3.037 237.947,3.200 238.847,3.200 239.824 C 3.200 240.801,3.380 241.600,3.600 241.600 C 3.820 241.600,4.000 242.230,4.000 243.000 C 4.000 243.770,4.180 244.400,4.400 244.400 C 4.620 244.400,4.800 245.210,4.800 246.200 C 4.800 247.190,4.957 248.000,5.148 248.000 C 5.340 248.000,5.618 249.075,5.767 250.388 C 5.915 251.701,6.209 252.882,6.418 253.011 C 6.628 253.141,6.800 253.867,6.800 254.624 C 6.800 255.381,6.980 256.000,7.200 256.000 C 7.420 256.000,7.600 256.630,7.600 257.400 C 7.600 258.170,7.780 258.800,8.000 258.800 C 8.220 258.800,8.400 259.250,8.400 259.800 C 8.400 260.350,8.557 260.800,8.748 260.800 C 8.940 260.800,9.215 261.693,9.360 262.784 C 9.505 263.875,9.798 264.875,10.012 265.007 C 10.225 265.139,10.400 265.676,10.400 266.200 C 10.400 266.724,10.580 267.264,10.800 267.400 C 11.020 267.536,11.200 268.087,11.200 268.624 C 11.200 269.161,11.380 269.600,11.600 269.600 C 11.820 269.600,12.000 269.960,12.000 270.400 C 12.000 270.840,12.160 271.200,12.355 271.200 C 12.550 271.200,12.831 272.010,12.979 273.000 C 13.128 273.990,13.418 274.800,13.625 274.800 C 13.831 274.800,14.000 275.250,14.000 275.800 C 14.000 276.350,14.180 276.800,14.400 276.800 C 14.620 276.800,14.800 277.160,14.800 277.600 C 14.800 278.040,14.980 278.400,15.200 278.400 C 15.420 278.400,15.600 278.670,15.600 279.000 C 15.600 279.330,15.756 279.600,15.947 279.600 C 16.138 279.600,16.397 280.361,16.522 281.291 C 16.646 282.222,16.940 283.047,17.174 283.125 C 17.408 283.203,17.600 283.612,17.600 284.033 C 17.600 284.455,17.780 284.800,18.000 284.800 C 18.220 284.800,18.400 285.160,18.400 285.600 C 18.400 286.040,18.580 286.400,18.800 286.400 C 19.020 286.400,19.200 286.670,19.200 287.000 C 19.200 287.330,19.380 287.600,19.600 287.600 C 19.820 287.600,20.000 287.869,20.000 288.197 C 20.000 289.031,21.323 292.000,21.694 292.000 C 21.862 292.000,22.000 292.360,22.000 292.800 C 22.000 293.240,22.180 293.600,22.400 293.600 C 22.620 293.600,22.800 293.870,22.800 294.200 C 22.800 294.530,22.980 294.800,23.200 294.800 C 23.420 294.800,23.600 295.055,23.600 295.368 C 23.600 296.081,24.898 298.394,25.300 298.397 C 25.465 298.399,25.600 298.760,25.600 299.200 C 25.600 299.640,25.780 300.000,26.000 300.000 C 26.220 300.000,26.400 300.360,26.400 300.800 C 26.400 301.240,26.580 301.600,26.800 301.600 C 27.020 301.600,27.200 301.870,27.200 302.200 C 27.200 302.530,27.345 302.800,27.523 302.800 C 27.701 302.800,28.181 303.565,28.590 304.500 C 28.999 305.435,29.663 306.491,30.067 306.847 C 30.470 307.203,30.800 307.768,30.800 308.104 C 30.800 308.440,31.070 308.818,31.400 308.945 C 31.730 309.071,32.000 309.501,32.000 309.899 C 32.000 310.297,32.360 310.883,32.800 311.200 C 33.240 311.517,33.600 311.967,33.600 312.200 C 33.600 312.433,33.960 312.883,34.400 313.200 C 34.840 313.517,35.200 314.065,35.200 314.419 C 35.200 314.772,35.650 315.483,36.200 316.000 C 36.750 316.517,37.200 317.138,37.200 317.381 C 37.200 317.625,37.560 318.083,38.000 318.400 C 38.440 318.717,38.800 319.201,38.800 319.475 C 38.800 319.749,39.430 320.603,40.200 321.373 C 40.970 322.143,41.600 322.916,41.600 323.091 C 41.600 323.265,42.005 323.856,42.500 324.404 C 42.995 324.952,43.654 325.892,43.964 326.493 C 44.274 327.095,44.850 327.689,45.244 327.814 C 45.637 327.939,46.070 328.392,46.206 328.820 C 46.343 329.249,46.622 329.600,46.827 329.600 C 47.032 329.600,47.200 329.801,47.200 330.047 C 47.200 330.432,49.503 333.057,51.128 334.523 C 52.651 335.897,54.400 337.806,54.400 338.094 C 54.400 338.522,61.478 345.600,61.906 345.600 C 62.201 345.600,64.298 347.532,65.457 348.872 C 66.161 349.687,68.802 352.000,69.028 352.000 C 69.261 352.000,70.843 353.397,72.086 354.700 C 72.558 355.195,73.100 355.600,73.290 355.600 C 73.481 355.600,74.070 356.005,74.599 356.500 C 76.029 357.837,76.739 358.400,76.996 358.400 C 77.123 358.400,77.857 359.030,78.627 359.800 C 79.397 360.570,80.251 361.200,80.525 361.200 C 80.799 361.200,81.283 361.560,81.600 362.000 C 81.917 362.440,82.379 362.800,82.626 362.800 C 82.874 362.800,83.402 363.160,83.800 363.600 C 84.198 364.040,84.758 364.400,85.044 364.400 C 85.330 364.400,86.014 364.850,86.564 365.400 C 87.114 365.950,87.669 366.400,87.799 366.400 C 87.928 366.400,88.410 366.751,88.871 367.180 C 89.331 367.609,90.189 368.066,90.776 368.195 C 91.364 368.324,92.099 368.783,92.411 369.215 C 92.722 369.647,93.254 370.000,93.592 370.000 C 93.931 370.000,94.422 370.344,94.685 370.764 C 94.947 371.184,95.692 371.644,96.339 371.787 C 96.987 371.929,97.834 372.395,98.221 372.823 C 98.607 373.250,99.166 373.600,99.462 373.600 C 99.758 373.600,100.000 373.780,100.000 374.000 C 100.000 374.220,100.360 374.400,100.800 374.400 C 101.240 374.400,101.600 374.580,101.600 374.800 C 101.600 375.020,101.848 375.200,102.151 375.200 C 102.454 375.200,102.926 375.470,103.200 375.800 C 103.474 376.130,104.036 376.400,104.449 376.400 C 104.862 376.400,105.200 376.580,105.200 376.800 C 105.200 377.020,105.470 377.200,105.800 377.200 C 106.130 377.200,106.400 377.380,106.400 377.600 C 106.400 377.820,106.760 378.000,107.200 378.000 C 107.640 378.000,108.000 378.180,108.000 378.400 C 108.000 378.620,108.315 378.806,108.700 378.813 C 109.085 378.820,109.749 379.090,110.176 379.413 C 110.604 379.736,111.279 380.000,111.676 380.000 C 112.074 380.000,112.400 380.180,112.400 380.400 C 112.400 380.620,112.670 380.800,113.000 380.800 C 113.330 380.800,113.600 380.980,113.600 381.200 C 113.600 381.420,113.960 381.600,114.400 381.600 C 114.840 381.600,115.200 381.780,115.200 382.000 C 115.200 382.220,115.539 382.400,115.954 382.400 C 116.369 382.400,117.224 382.669,117.854 382.998 C 118.484 383.326,119.315 383.596,119.700 383.598 C 120.085 383.599,120.400 383.780,120.400 384.000 C 120.400 384.220,120.670 384.400,121.000 384.400 C 121.330 384.400,121.600 384.580,121.600 384.800 C 121.600 385.020,122.140 385.200,122.800 385.200 C 123.460 385.200,124.000 385.336,124.000 385.502 C 124.000 385.883,125.795 386.650,127.500 386.998 C 128.215 387.144,128.800 387.429,128.800 387.632 C 128.800 387.834,129.340 388.000,130.000 388.000 C 130.660 388.000,131.200 388.180,131.200 388.400 C 131.200 388.620,131.650 388.800,132.200 388.800 C 132.750 388.800,133.200 388.980,133.200 389.200 C 133.200 389.420,133.639 389.600,134.176 389.600 C 134.713 389.600,135.254 389.763,135.377 389.963 C 135.500 390.162,136.501 390.449,137.600 390.600 C 138.700 390.751,139.600 391.038,139.600 391.238 C 139.600 391.437,140.140 391.600,140.800 391.600 C 141.460 391.600,142.000 391.780,142.000 392.000 C 142.000 392.220,142.630 392.400,143.400 392.400 C 144.170 392.400,144.800 392.580,144.800 392.800 C 144.800 393.020,145.239 393.200,145.776 393.200 C 146.313 393.200,146.853 393.362,146.975 393.559 C 147.097 393.757,148.458 394.045,149.998 394.200 C 151.539 394.355,152.800 394.643,152.800 394.841 C 152.800 395.038,153.610 395.200,154.600 395.200 C 155.590 395.200,156.400 395.380,156.400 395.600 C 156.400 395.820,157.030 396.000,157.800 396.000 C 158.570 396.000,159.200 396.180,159.200 396.400 C 159.200 396.620,160.175 396.800,161.367 396.800 C 162.558 396.800,163.593 396.975,163.667 397.188 C 163.740 397.401,165.825 397.699,168.300 397.848 C 170.775 397.998,172.800 398.273,172.800 398.460 C 172.800 398.647,173.955 398.800,175.367 398.800 C 177.064 398.800,177.990 398.969,178.100 399.300 C 178.231 399.692,182.889 399.800,199.600 399.800 C 216.311 399.800,220.969 399.692,221.100 399.300 C 221.213 398.960,222.216 398.800,224.233 398.800 C 225.865 398.800,227.200 398.642,227.200 398.448 C 227.200 398.254,229.270 397.967,231.800 397.808 C 234.330 397.650,236.400 397.359,236.400 397.161 C 236.400 396.962,237.210 396.800,238.200 396.800 C 239.190 396.800,240.000 396.620,240.000 396.400 C 240.000 396.180,240.810 396.000,241.800 396.000 C 242.790 396.000,243.600 395.820,243.600 395.600 C 243.600 395.380,244.230 395.200,245.000 395.200 C 245.770 395.200,246.400 395.046,246.400 394.857 C 246.400 394.669,247.705 394.394,249.300 394.246 C 250.895 394.099,252.260 393.803,252.333 393.589 C 252.407 393.375,253.082 393.200,253.833 393.200 C 254.585 393.200,255.200 393.020,255.200 392.800 C 255.200 392.580,255.650 392.400,256.200 392.400 C 256.750 392.400,257.200 392.220,257.200 392.000 C 257.200 391.780,257.920 391.600,258.800 391.600 C 259.680 391.600,260.400 391.437,260.400 391.238 C 260.400 391.038,261.300 390.751,262.400 390.600 C 263.500 390.449,264.400 390.162,264.400 389.962 C 264.400 389.763,264.940 389.600,265.600 389.600 C 266.260 389.600,266.800 389.420,266.800 389.200 C 266.800 388.980,267.250 388.800,267.800 388.800 C 268.350 388.800,268.800 388.620,268.800 388.400 C 268.800 388.180,269.160 388.000,269.600 388.000 C 270.040 388.000,270.400 387.840,270.400 387.645 C 270.400 387.450,271.210 387.169,272.200 387.021 C 273.190 386.872,274.000 386.582,274.000 386.375 C 274.000 386.169,274.450 386.000,275.000 386.000 C 275.550 386.000,276.000 385.820,276.000 385.600 C 276.000 385.380,276.360 385.200,276.800 385.200 C 277.240 385.200,277.600 385.020,277.600 384.800 C 277.600 384.580,278.050 384.400,278.600 384.400 C 279.150 384.400,279.600 384.220,279.600 384.000 C 279.600 383.780,279.869 383.600,280.197 383.600 C 281.031 383.600,284.000 382.277,284.000 381.906 C 284.000 381.738,284.360 381.600,284.800 381.600 C 285.240 381.600,285.600 381.420,285.600 381.200 C 285.600 380.980,286.050 380.800,286.600 380.800 C 287.150 380.800,287.600 380.620,287.600 380.400 C 287.600 380.180,287.926 380.000,288.324 380.000 C 288.721 380.000,289.396 379.736,289.824 379.413 C 290.251 379.090,290.875 378.820,291.212 378.813 C 291.548 378.806,292.083 378.440,292.400 378.000 C 292.717 377.560,293.297 377.200,293.688 377.200 C 294.080 377.200,294.400 377.020,294.400 376.800 C 294.400 376.580,294.579 376.400,294.797 376.400 C 295.480 376.400,298.400 375.027,298.400 374.706 C 298.400 374.538,298.720 374.400,299.112 374.400 C 299.503 374.400,300.083 374.040,300.400 373.600 C 300.717 373.160,301.207 372.800,301.488 372.800 C 301.770 372.800,302.000 372.620,302.000 372.400 C 302.000 372.180,302.347 372.000,302.771 372.000 C 303.196 372.000,303.813 371.730,304.143 371.400 C 304.473 371.070,304.936 370.800,305.171 370.800 C 305.407 370.800,305.600 370.620,305.600 370.400 C 305.600 370.180,305.894 370.000,306.253 370.000 C 306.612 370.000,307.197 369.666,307.553 369.257 C 307.909 368.849,308.605 368.387,309.100 368.230 C 309.595 368.074,310.000 367.778,310.000 367.573 C 310.000 367.368,310.320 367.200,310.712 367.200 C 311.103 367.200,311.683 366.840,312.000 366.400 C 312.317 365.960,312.807 365.600,313.088 365.600 C 313.370 365.600,313.600 365.423,313.600 365.208 C 313.600 364.992,314.044 364.704,314.587 364.568 C 315.130 364.431,315.985 363.800,316.487 363.164 C 316.989 362.528,317.633 362.006,317.917 362.004 C 318.202 362.002,318.920 361.550,319.513 361.000 C 320.107 360.450,320.746 360.000,320.935 360.000 C 321.124 360.000,321.783 359.460,322.400 358.800 C 323.017 358.140,323.713 357.600,323.947 357.600 C 324.182 357.600,325.003 356.970,325.773 356.200 C 326.543 355.430,327.268 354.800,327.384 354.800 C 327.940 354.800,331.600 351.312,331.600 350.782 C 331.600 350.572,331.887 350.400,332.237 350.400 C 332.747 350.400,335.794 347.740,338.200 345.196 C 338.420 344.964,339.179 344.194,339.887 343.487 C 340.594 342.779,341.353 342.020,341.573 341.800 C 341.793 341.580,342.603 340.770,343.373 340.000 C 344.143 339.230,344.964 338.420,345.196 338.200 C 347.740 335.794,350.400 332.747,350.400 332.237 C 350.400 331.887,350.572 331.600,350.782 331.600 C 351.312 331.600,354.800 327.940,354.800 327.384 C 354.800 327.268,355.430 326.543,356.200 325.773 C 356.970 325.003,357.600 324.182,357.600 323.947 C 357.600 323.713,358.140 323.017,358.800 322.400 C 359.460 321.783,360.000 321.124,360.000 320.935 C 360.000 320.746,360.450 320.107,361.000 319.513 C 361.550 318.920,362.002 318.202,362.004 317.917 C 362.006 317.633,362.528 316.989,363.164 316.487 C 363.800 315.985,364.431 315.130,364.568 314.587 C 364.704 314.044,364.992 313.600,365.208 313.600 C 365.423 313.600,365.600 313.370,365.600 313.088 C 365.600 312.807,365.960 312.317,366.400 312.000 C 366.840 311.683,367.200 311.103,367.200 310.712 C 367.200 310.320,367.368 310.000,367.573 310.000 C 367.778 310.000,368.074 309.595,368.230 309.100 C 368.387 308.605,368.849 307.909,369.257 307.553 C 369.666 307.197,370.000 306.612,370.000 306.253 C 370.000 305.894,370.180 305.600,370.400 305.600 C 370.620 305.600,370.800 305.407,370.800 305.171 C 370.800 304.936,371.070 304.473,371.400 304.143 C 371.730 303.813,372.000 303.196,372.000 302.771 C 372.000 302.347,372.180 302.000,372.400 302.000 C 372.620 302.000,372.800 301.770,372.800 301.488 C 372.800 301.207,373.160 300.717,373.600 300.400 C 374.040 300.083,374.400 299.503,374.400 299.112 C 374.400 298.720,374.538 298.400,374.706 298.400 C 375.027 298.400,376.400 295.480,376.400 294.797 C 376.400 294.579,376.580 294.400,376.800 294.400 C 377.020 294.400,377.200 294.040,377.200 293.600 C 377.200 293.160,377.380 292.800,377.600 292.800 C 377.820 292.800,378.000 292.522,378.000 292.183 C 378.000 291.844,378.372 291.169,378.827 290.683 C 379.283 290.197,379.755 289.305,379.877 288.700 C 380.000 288.095,380.258 287.600,380.450 287.600 C 380.643 287.600,380.800 287.150,380.800 286.600 C 380.800 286.050,380.980 285.600,381.200 285.600 C 381.420 285.600,381.600 285.240,381.600 284.800 C 381.600 284.360,381.738 284.000,381.906 284.000 C 382.277 284.000,383.600 281.031,383.600 280.197 C 383.600 279.869,383.780 279.600,384.000 279.600 C 384.220 279.600,384.400 279.150,384.400 278.600 C 384.400 278.050,384.580 277.600,384.800 277.600 C 385.020 277.600,385.200 277.240,385.200 276.800 C 385.200 276.360,385.380 276.000,385.600 276.000 C 385.820 276.000,386.000 275.550,386.000 275.000 C 386.000 274.450,386.169 274.000,386.375 274.000 C 386.582 274.000,386.872 273.190,387.021 272.200 C 387.169 271.210,387.450 270.400,387.645 270.400 C 387.840 270.400,388.000 270.040,388.000 269.600 C 388.000 269.160,388.180 268.800,388.400 268.800 C 388.620 268.800,388.800 268.350,388.800 267.800 C 388.800 267.250,388.980 266.800,389.200 266.800 C 389.420 266.800,389.600 266.260,389.600 265.600 C 389.600 264.940,389.763 264.400,389.962 264.400 C 390.162 264.400,390.449 263.500,390.600 262.400 C 390.751 261.300,391.038 260.400,391.238 260.400 C 391.437 260.400,391.600 259.680,391.600 258.800 C 391.600 257.920,391.780 257.200,392.000 257.200 C 392.220 257.200,392.400 256.750,392.400 256.200 C 392.400 255.650,392.580 255.200,392.800 255.200 C 393.020 255.200,393.200 254.585,393.200 253.833 C 393.200 253.082,393.375 252.407,393.589 252.333 C 393.803 252.260,394.099 250.895,394.246 249.300 C 394.394 247.705,394.669 246.400,394.857 246.400 C 395.046 246.400,395.200 245.770,395.200 245.000 C 395.200 244.230,395.380 243.600,395.600 243.600 C 395.820 243.600,396.000 242.790,396.000 241.800 C 396.000 240.810,396.180 240.000,396.400 240.000 C 396.620 240.000,396.800 239.190,396.800 238.200 C 396.800 237.210,396.962 236.400,397.161 236.400 C 397.359 236.400,397.650 234.330,397.808 231.800 C 397.967 229.270,398.254 227.200,398.448 227.200 C 398.642 227.200,398.800 225.865,398.800 224.233 C 398.800 222.216,398.960 221.213,399.300 221.100 C 399.692 220.969,399.800 216.311,399.800 199.600 C 399.800 182.889,399.692 178.231,399.300 178.100 C 398.969 177.990,398.800 177.064,398.800 175.367 C 398.800 173.955,398.647 172.800,398.460 172.800 C 398.273 172.800,397.998 170.775,397.848 168.300 C 397.699 165.825,397.401 163.740,397.188 163.667 C 396.975 163.593,396.800 162.558,396.800 161.367 C 396.800 160.175,396.620 159.200,396.400 159.200 C 396.180 159.200,396.000 158.570,396.000 157.800 C 396.000 157.030,395.820 156.400,395.600 156.400 C 395.380 156.400,395.200 155.590,395.200 154.600 C 395.200 153.610,395.038 152.800,394.841 152.800 C 394.643 152.800,394.355 151.539,394.200 149.998 C 394.045 148.458,393.757 147.097,393.559 146.975 C 393.362 146.853,393.200 146.313,393.200 145.776 C 393.200 145.239,393.020 144.800,392.800 144.800 C 392.580 144.800,392.400 144.170,392.400 143.400 C 392.400 142.630,392.220 142.000,392.000 142.000 C 391.780 142.000,391.600 141.460,391.600 140.800 C 391.600 140.140,391.437 139.600,391.238 139.600 C 391.038 139.600,390.751 138.700,390.600 137.600 C 390.449 136.500,390.162 135.600,389.962 135.600 C 389.763 135.600,389.600 135.060,389.600 134.400 C 389.600 133.740,389.420 133.200,389.200 133.200 C 388.980 133.200,388.800 132.750,388.800 132.200 C 388.800 131.650,388.620 131.200,388.400 131.200 C 388.180 131.200,388.000 130.660,388.000 130.000 C 388.000 129.340,387.834 128.800,387.632 128.800 C 387.429 128.800,387.144 128.215,386.998 127.500 C 386.650 125.795,385.883 124.000,385.502 124.000 C 385.336 124.000,385.200 123.460,385.200 122.800 C 385.200 122.140,385.020 121.600,384.800 121.600 C 384.580 121.600,384.400 121.330,384.400 121.000 C 384.400 120.670,384.220 120.400,384.000 120.400 C 383.780 120.400,383.599 120.085,383.598 119.700 C 383.596 119.315,383.326 118.484,382.998 117.854 C 382.669 117.224,382.400 116.369,382.400 115.954 C 382.400 115.539,382.220 115.200,382.000 115.200 C 381.780 115.200,381.600 114.840,381.600 114.400 C 381.600 113.960,381.420 113.600,381.200 113.600 C 380.980 113.600,380.800 113.330,380.800 113.000 C 380.800 112.670,380.620 112.400,380.400 112.400 C 380.180 112.400,380.000 112.074,380.000 111.676 C 380.000 111.279,379.736 110.604,379.413 110.176 C 379.090 109.749,378.820 109.085,378.813 108.700 C 378.806 108.315,378.620 108.000,378.400 108.000 C 378.180 108.000,378.000 107.640,378.000 107.200 C 378.000 106.760,377.820 106.400,377.600 106.400 C 377.380 106.400,377.200 106.130,377.200 105.800 C 377.200 105.470,377.020 105.200,376.800 105.200 C 376.580 105.200,376.400 104.862,376.400 104.449 C 376.400 104.036,376.130 103.474,375.800 103.200 C 375.470 102.926,375.200 102.454,375.200 102.151 C 375.200 101.848,375.020 101.600,374.800 101.600 C 374.580 101.600,374.400 101.240,374.400 100.800 C 374.400 100.360,374.220 100.000,374.000 100.000 C 373.780 100.000,373.600 99.758,373.600 99.462 C 373.600 99.166,373.250 98.607,372.823 98.221 C 372.395 97.834,371.929 96.987,371.787 96.339 C 371.644 95.692,371.184 94.947,370.764 94.685 C 370.344 94.422,370.000 93.931,370.000 93.592 C 370.000 93.254,369.647 92.722,369.215 92.411 C 368.783 92.099,368.324 91.364,368.195 90.776 C 368.066 90.189,367.609 89.331,367.180 88.871 C 366.751 88.410,366.400 87.928,366.400 87.799 C 366.400 87.669,365.950 87.114,365.400 86.564 C 364.850 86.014,364.400 85.330,364.400 85.044 C 364.400 84.758,364.040 84.198,363.600 83.800 C 363.160 83.402,362.800 82.874,362.800 82.626 C 362.800 82.379,362.440 81.917,362.000 81.600 C 361.560 81.283,361.200 80.799,361.200 80.525 C 361.200 80.251,360.570 79.397,359.800 78.627 C 359.030 77.857,358.400 77.123,358.400 76.996 C 358.400 76.739,357.837 76.029,356.500 74.599 C 356.005 74.070,355.600 73.481,355.600 73.290 C 355.600 73.100,355.195 72.558,354.700 72.086 C 353.397 70.843,352.000 69.261,352.000 69.028 C 352.000 68.802,349.687 66.161,348.872 65.457 C 347.532 64.298,345.600 62.201,345.600 61.906 C 345.600 61.478,338.522 54.400,338.094 54.400 C 337.806 54.400,335.897 52.651,334.523 51.128 C 333.057 49.503,330.432 47.200,330.047 47.200 C 329.801 47.200,329.600 47.032,329.600 46.827 C 329.600 46.622,329.249 46.343,328.820 46.206 C 328.392 46.070,327.939 45.637,327.814 45.244 C 327.689 44.850,327.095 44.274,326.493 43.964 C 325.892 43.654,324.952 42.995,324.404 42.500 C 323.856 42.005,323.265 41.600,323.091 41.600 C 322.916 41.600,322.143 40.970,321.373 40.200 C 320.603 39.430,319.749 38.800,319.475 38.800 C 319.201 38.800,318.717 38.440,318.400 38.000 C 318.083 37.560,317.625 37.200,317.381 37.200 C 317.138 37.200,316.517 36.750,316.000 36.200 C 315.483 35.650,314.772 35.200,314.419 35.200 C 314.065 35.200,313.517 34.840,313.200 34.400 C 312.883 33.960,312.433 33.600,312.200 33.600 C 311.967 33.600,311.517 33.240,311.200 32.800 C 310.883 32.360,310.297 32.000,309.899 32.000 C 309.501 32.000,309.071 31.730,308.945 31.400 C 308.818 31.070,308.440 30.800,308.104 30.800 C 307.768 30.800,307.203 30.470,306.847 30.067 C 306.491 29.663,305.435 28.999,304.500 28.590 C 303.565 28.181,302.800 27.701,302.800 27.523 C 302.800 27.345,302.530 27.200,302.200 27.200 C 301.870 27.200,301.600 27.020,301.600 26.800 C 301.600 26.580,301.240 26.400,300.800 26.400 C 300.360 26.400,300.000 26.220,300.000 26.000 C 300.000 25.780,299.640 25.600,299.200 25.600 C 298.760 25.600,298.399 25.465,298.397 25.300 C 298.394 24.898,296.081 23.600,295.368 23.600 C 295.055 23.600,294.800 23.420,294.800 23.200 C 294.800 22.980,294.530 22.800,294.200 22.800 C 293.870 22.800,293.600 22.620,293.600 22.400 C 293.600 22.180,293.240 22.000,292.800 22.000 C 292.360 22.000,292.000 21.862,292.000 21.694 C 292.000 21.323,289.031 20.000,288.197 20.000 C 287.869 20.000,287.600 19.820,287.600 19.600 C 287.600 19.380,287.330 19.200,287.000 19.200 C 286.670 19.200,286.400 19.020,286.400 18.800 C 286.400 18.580,286.040 18.400,285.600 18.400 C 285.160 18.400,284.800 18.220,284.800 18.000 C 284.800 17.780,284.455 17.600,284.033 17.600 C 283.612 17.600,283.203 17.408,283.125 17.174 C 283.047 16.940,282.222 16.646,281.291 16.522 C 280.361 16.397,279.600 16.138,279.600 15.947 C 279.600 15.756,279.330 15.600,279.000 15.600 C 278.670 15.600,278.400 15.420,278.400 15.200 C 278.400 14.980,278.040 14.800,277.600 14.800 C 277.160 14.800,276.800 14.620,276.800 14.400 C 276.800 14.180,276.350 14.000,275.800 14.000 C 275.250 14.000,274.800 13.831,274.800 13.625 C 274.800 13.418,273.990 13.128,273.000 12.979 C 272.010 12.831,271.200 12.550,271.200 12.355 C 271.200 12.160,270.840 12.000,270.400 12.000 C 269.960 12.000,269.600 11.820,269.600 11.600 C 269.600 11.380,269.161 11.200,268.624 11.200 C 268.087 11.200,267.536 11.020,267.400 10.800 C 267.264 10.580,266.724 10.400,266.200 10.400 C 265.676 10.400,265.139 10.225,265.007 10.012 C 264.875 9.798,263.875 9.505,262.784 9.360 C 261.693 9.215,260.800 8.940,260.800 8.748 C 260.800 8.557,260.350 8.400,259.800 8.400 C 259.250 8.400,258.800 8.220,258.800 8.000 C 258.800 7.780,258.170 7.600,257.400 7.600 C 256.630 7.600,256.000 7.420,256.000 7.200 C 256.000 6.980,255.381 6.800,254.624 6.800 C 253.867 6.800,253.141 6.628,253.011 6.418 C 252.882 6.209,251.701 5.915,250.388 5.767 C 249.075 5.618,248.000 5.340,248.000 5.148 C 248.000 4.957,247.190 4.800,246.200 4.800 C 245.210 4.800,244.400 4.620,244.400 4.400 C 244.400 4.180,243.770 4.000,243.000 4.000 C 242.230 4.000,241.600 3.820,241.600 3.600 C 241.600 3.380,240.801 3.200,239.824 3.200 C 238.847 3.200,237.947 3.037,237.824 2.839 C 237.701 2.640,235.710 2.348,233.400 2.191 C 231.090 2.033,229.200 1.746,229.200 1.552 C 229.200 1.358,227.955 1.200,226.433 1.200 C 224.680 1.200,223.610 1.029,223.511 0.733 C 223.355 0.266,188.804 -0.102,180.100 0.271 M170.694 32.061 C 182.515 34.919,191.336 43.222,194.853 54.800 C 195.603 57.267,195.588 68.790,194.832 71.000 C 190.431 83.869,179.901 92.948,168.300 93.875 L 165.600 94.090 165.618 95.545 C 165.635 96.957,165.856 98.912,166.803 106.000 C 167.053 107.870,167.424 110.705,167.628 112.300 C 167.833 113.895,168.168 116.505,168.373 118.100 C 168.577 119.695,169.026 123.250,169.370 126.000 C 170.433 134.503,170.761 136.935,171.097 138.800 L 171.422 140.600 208.684 140.702 L 245.945 140.804 246.773 141.856 C 247.567 142.866,247.600 143.382,247.600 154.836 L 247.600 166.764 246.582 167.782 L 245.564 168.800 210.405 168.800 C 191.059 168.800,175.151 168.956,175.033 169.146 C 174.916 169.336,174.991 170.461,175.200 171.646 C 175.598 173.901,176.207 178.656,176.706 183.400 L 177.000 186.200 218.600 186.400 L 260.200 186.600 262.029 187.511 C 266.753 189.863,264.052 185.046,293.845 244.243 L 308.562 273.486 315.581 270.006 C 345.394 255.227,343.178 256.175,344.672 257.567 C 345.125 257.989,346.846 261.004,348.497 264.267 C 350.147 267.530,352.511 272.146,353.749 274.525 C 357.262 281.276,358.145 280.198,342.747 287.961 C 319.578 299.642,307.777 305.513,306.400 306.046 C 301.578 307.910,293.674 305.268,290.707 300.800 C 290.195 300.030,280.242 280.263,268.589 256.874 L 247.400 214.348 204.000 214.474 L 160.600 214.600 157.938 213.310 C 153.700 211.256,150.422 205.622,149.846 199.400 C 149.652 197.313,148.750 189.835,147.987 184.000 C 147.242 178.296,146.792 174.741,146.418 171.600 C 145.796 166.379,144.848 158.721,144.387 155.200 C 143.642 149.496,143.192 145.941,142.818 142.800 C 142.196 137.579,141.248 129.921,140.787 126.400 C 140.543 124.530,140.176 121.695,139.972 120.100 C 139.767 118.505,139.432 115.895,139.227 114.300 C 139.022 112.705,138.569 108.970,138.221 106.000 C 137.872 103.030,137.410 99.250,137.193 97.600 C 136.976 95.950,136.613 93.160,136.388 91.400 C 136.162 89.640,135.813 86.940,135.613 85.400 C 135.413 83.860,135.057 80.980,134.823 79.000 C 134.589 77.020,134.117 73.240,133.775 70.600 C 132.540 61.069,132.698 56.845,134.453 52.520 C 138.598 42.308,145.694 35.399,154.600 32.905 C 155.480 32.659,156.830 32.283,157.600 32.069 C 159.589 31.519,168.428 31.513,170.694 32.061 M130.573 147.970 C 130.970 148.409,131.412 149.830,131.599 151.270 C 135.018 177.581,135.310 174.099,129.441 176.981 C 123.993 179.656,121.567 181.171,116.627 184.986 C 113.743 187.213,105.026 195.995,103.000 198.715 C 101.900 200.192,100.903 201.490,100.785 201.600 C 99.436 202.852,93.950 212.732,92.233 217.000 C 89.956 222.660,89.835 223.023,88.779 227.375 C 86.528 236.643,85.769 251.480,87.192 258.400 C 87.395 259.390,87.770 261.280,88.025 262.600 C 88.563 265.384,90.267 271.832,90.773 273.000 C 90.963 273.440,91.350 274.430,91.631 275.200 C 98.151 293.025,115.841 311.128,134.200 318.764 C 151.468 325.945,170.952 326.639,189.000 320.713 C 192.089 319.699,198.601 316.849,201.338 315.312 C 202.625 314.591,203.744 314.000,203.826 314.000 C 204.139 314.000,209.940 310.094,212.413 308.218 C 216.170 305.369,224.162 297.419,226.306 294.400 C 227.321 292.970,228.254 291.710,228.380 291.600 C 231.238 289.091,238.333 273.392,240.130 265.600 C 240.693 263.161,240.942 261.752,241.983 255.154 C 242.212 253.699,242.400 249.690,242.400 246.245 C 242.400 240.004,242.403 239.981,243.371 239.541 C 245.809 238.430,245.664 238.210,255.781 258.455 C 264.900 276.703,265.622 278.415,264.832 279.905 C 264.630 280.287,264.064 281.680,263.575 283.000 C 259.167 294.902,254.668 302.873,246.457 313.328 C 242.656 318.168,230.668 329.085,224.600 333.233 C 223.500 333.985,222.510 334.709,222.400 334.842 C 221.303 336.169,207.172 343.560,202.600 345.197 C 201.280 345.670,199.840 346.206,199.400 346.388 C 196.761 347.480,191.328 349.007,186.800 349.928 C 185.590 350.175,183.700 350.562,182.600 350.788 C 173.446 352.676,156.117 352.685,146.387 350.807 C 139.000 349.381,132.351 347.667,129.400 346.426 C 128.960 346.241,126.890 345.408,124.800 344.575 C 109.614 338.523,94.467 327.619,83.793 315.054 C 82.697 313.764,81.617 312.504,81.393 312.254 C 79.189 309.791,73.943 302.062,72.532 299.200 C 72.152 298.430,71.722 297.710,71.575 297.600 C 71.234 297.344,66.689 287.847,66.024 286.000 C 65.746 285.230,65.363 284.240,65.173 283.800 C 64.982 283.360,64.291 281.342,63.636 279.315 C 62.572 276.023,62.165 274.489,60.792 268.600 C 57.045 252.524,58.828 224.508,64.408 211.800 C 64.602 211.360,65.025 210.180,65.348 209.179 C 66.729 204.907,71.658 195.034,74.459 190.928 C 75.087 190.008,75.600 189.063,75.600 188.828 C 75.600 188.593,75.751 188.400,75.936 188.400 C 76.120 188.400,76.457 187.995,76.683 187.500 C 77.135 186.512,80.423 182.099,83.208 178.741 C 86.217 175.112,92.439 168.841,95.800 166.049 C 100.001 162.560,107.236 157.200,107.746 157.200 C 107.877 157.200,108.933 156.597,110.092 155.860 C 112.235 154.498,120.813 150.122,123.000 149.275 C 123.660 149.019,125.010 148.466,126.000 148.046 C 128.357 147.047,129.717 147.024,130.573 147.970 " stroke="none" fill="#fbc344" fill-rule="evenodd"></path><path id="path2" d="M157.600 32.654 L 155.800 33.203 157.600 32.901 C 158.590 32.736,161.869 32.600,164.887 32.600 C 167.905 32.600,170.065 32.478,169.687 32.328 C 168.447 31.837,159.484 32.079,157.600 32.654 M170.833 32.943 C 170.925 33.021,171.630 33.201,172.400 33.342 C 173.385 33.523,173.622 33.482,173.200 33.206 C 172.658 32.850,170.437 32.603,170.833 32.943 M153.600 33.667 C 152.830 33.885,152.020 34.255,151.800 34.490 C 151.520 34.789,151.640 34.827,152.200 34.615 C 152.640 34.449,153.585 34.144,154.300 33.938 C 155.015 33.731,155.600 33.481,155.600 33.381 C 155.600 33.146,155.292 33.190,153.600 33.667 M176.043 34.542 C 178.347 35.490,180.788 36.847,182.200 37.966 C 182.984 38.588,182.986 38.583,182.280 37.746 C 181.452 36.764,175.468 33.595,174.469 33.609 C 174.101 33.615,174.809 34.034,176.043 34.542 M149.500 35.429 C 147.949 36.270,148.125 36.561,149.700 35.759 C 151.208 34.993,151.475 34.794,150.967 34.816 C 150.765 34.825,150.105 35.101,149.500 35.429 M146.400 37.376 C 145.630 37.887,144.550 38.816,144.000 39.441 C 143.153 40.404,143.255 40.365,144.665 39.189 C 145.581 38.425,146.751 37.493,147.265 37.118 C 148.640 36.114,148.024 36.298,146.400 37.376 M183.200 38.450 C 183.200 38.543,184.580 39.966,186.266 41.610 C 187.953 43.255,188.898 44.060,188.366 43.400 C 187.345 42.131,183.200 38.160,183.200 38.450 M139.869 43.576 C 138.549 45.037,136.949 47.600,137.357 47.600 C 137.455 47.600,137.946 46.935,138.449 46.122 C 138.951 45.308,139.884 44.048,140.523 43.322 C 141.161 42.595,141.595 42.000,141.488 42.000 C 141.381 42.000,140.652 42.709,139.869 43.576 M189.953 45.845 C 190.885 47.255,193.400 52.587,193.706 53.800 C 193.873 54.464,193.915 54.480,193.954 53.891 C 194.017 52.931,191.130 46.843,190.022 45.600 L 189.131 44.600 189.953 45.845 M136.485 48.813 C 136.218 49.240,136.001 49.817,136.002 50.095 C 136.004 50.373,136.277 50.078,136.610 49.440 C 137.303 48.111,137.211 47.650,136.485 48.813 M194.259 56.600 C 194.399 57.700,194.577 58.675,194.656 58.767 C 194.999 59.164,194.750 55.741,194.397 55.200 C 194.130 54.790,194.086 55.235,194.259 56.600 M133.453 58.436 C 133.314 59.131,133.225 60.623,133.256 61.750 C 133.303 63.458,133.363 63.267,133.618 60.600 C 133.941 57.219,133.874 56.332,133.453 58.436 M194.944 62.800 C 194.944 64.890,195.012 65.745,195.094 64.700 C 195.176 63.655,195.176 61.945,195.094 60.900 C 195.012 59.855,194.944 60.710,194.944 62.800 M134.109 68.000 C 134.109 68.990,134.187 69.395,134.282 68.900 C 134.378 68.405,134.378 67.595,134.282 67.100 C 134.187 66.605,134.109 67.010,134.109 68.000 M194.467 68.040 C 194.392 69.661,193.887 71.382,192.737 73.944 C 192.307 74.903,192.023 75.757,192.107 75.841 C 192.253 75.987,193.353 73.616,194.375 70.951 C 194.639 70.265,194.782 69.005,194.694 68.151 L 194.534 66.600 194.467 68.040 M134.497 72.000 C 134.496 72.990,134.632 74.340,134.800 75.000 L 135.105 76.200 135.123 75.000 C 135.133 74.340,134.997 72.990,134.820 72.000 L 134.500 70.200 134.497 72.000 M135.240 78.233 C 135.262 79.315,135.429 80.650,135.611 81.200 C 135.812 81.809,135.853 81.104,135.716 79.400 C 135.450 76.095,135.183 75.442,135.240 78.233 M189.252 80.300 C 186.344 84.539,181.760 88.374,176.600 90.883 C 174.840 91.738,173.850 92.317,174.400 92.167 C 179.013 90.917,186.272 85.273,189.662 80.300 C 190.524 79.035,191.140 78.000,191.030 78.000 C 190.920 78.000,190.120 79.035,189.252 80.300 M136.047 84.233 C 136.073 85.315,136.235 86.740,136.406 87.400 C 136.588 88.103,136.628 87.358,136.503 85.600 C 136.257 82.159,135.977 81.318,136.047 84.233 M136.914 90.600 C 136.917 91.700,136.995 92.103,137.087 91.495 C 137.179 90.886,137.177 89.986,137.082 89.495 C 136.987 89.003,136.911 89.500,136.914 90.600 M137.491 95.400 C 137.611 96.940,137.775 98.275,137.855 98.367 C 138.122 98.673,137.909 95.016,137.589 93.800 C 137.398 93.072,137.359 93.702,137.491 95.400 M164.641 93.534 C 164.527 93.718,164.591 95.023,164.783 96.434 L 165.131 99.000 165.090 96.400 L 165.049 93.800 167.424 93.567 L 169.800 93.334 167.324 93.267 C 165.962 93.230,164.754 93.350,164.641 93.534 M138.093 100.800 C 138.094 101.790,138.232 103.140,138.400 103.800 L 138.705 105.000 138.730 103.600 C 138.743 102.830,138.605 101.480,138.423 100.600 L 138.092 99.000 138.093 100.800 M165.397 101.200 C 165.490 102.410,165.769 104.930,166.015 106.800 C 166.262 108.670,166.605 111.280,166.777 112.600 C 167.017 114.437,167.103 114.650,167.145 113.507 C 167.175 112.687,167.013 110.797,166.784 109.307 C 166.555 107.818,166.111 104.890,165.797 102.800 C 165.483 100.710,165.303 99.990,165.397 101.200 M138.828 107.233 C 138.844 108.425,139.016 109.760,139.211 110.200 C 139.435 110.705,139.478 109.966,139.328 108.200 C 139.038 104.781,138.790 104.302,138.828 107.233 M139.647 113.033 C 139.673 114.115,139.835 115.540,140.006 116.200 C 140.188 116.903,140.228 116.158,140.103 114.400 C 139.857 110.959,139.577 110.118,139.647 113.033 M167.499 117.800 C 167.616 119.340,167.777 120.675,167.856 120.767 C 168.134 121.088,167.917 116.989,167.603 116.000 C 167.419 115.419,167.375 116.173,167.499 117.800 M140.514 119.400 C 140.517 120.500,140.595 120.903,140.687 120.295 C 140.779 119.686,140.777 118.786,140.682 118.295 C 140.587 117.803,140.511 118.300,140.514 119.400 M168.284 123.800 C 168.408 125.340,168.575 126.675,168.655 126.767 C 168.942 127.096,168.713 122.978,168.389 122.000 C 168.188 121.391,168.147 122.096,168.284 123.800 M141.097 124.400 C 141.215 126.050,141.376 127.475,141.456 127.567 C 141.722 127.875,141.509 123.813,141.194 122.600 C 141.012 121.897,140.972 122.642,141.097 124.400 M168.869 128.400 C 168.856 129.170,168.995 130.520,169.177 131.400 L 169.508 133.000 169.531 131.600 C 169.544 130.830,169.405 129.480,169.223 128.600 L 168.892 127.000 168.869 128.400 M141.669 129.200 C 141.656 129.970,141.795 131.320,141.977 132.200 L 142.308 133.800 142.331 132.400 C 142.344 131.630,142.205 130.280,142.023 129.400 L 141.692 127.800 141.669 129.200 M169.651 134.354 C 169.579 136.271,170.472 140.943,170.977 141.294 C 171.209 141.456,188.191 141.591,208.713 141.594 L 246.026 141.600 246.388 142.500 C 246.632 143.109,246.757 143.190,246.775 142.749 C 246.835 141.212,246.726 141.207,208.379 141.102 L 171.036 141.000 170.693 139.400 C 170.504 138.520,170.204 136.720,170.026 135.400 C 169.812 133.822,169.684 133.464,169.651 134.354 M142.428 136.033 C 142.444 137.225,142.616 138.560,142.811 139.000 C 143.035 139.505,143.078 138.766,142.928 137.000 C 142.638 133.581,142.390 133.102,142.428 136.033 M143.435 142.600 C 143.538 144.140,143.772 146.570,143.955 148.000 C 144.138 149.430,144.595 153.207,144.970 156.393 C 145.345 159.579,145.755 162.279,145.881 162.393 C 146.114 162.604,145.867 159.785,145.182 154.400 C 144.972 152.750,144.608 149.870,144.372 148.000 C 144.137 146.130,143.788 143.520,143.596 142.200 L 143.249 139.800 143.435 142.600 M146.040 164.633 C 146.062 165.715,146.229 167.050,146.411 167.600 C 146.612 168.209,146.653 167.504,146.516 165.800 C 146.250 162.495,145.983 161.842,146.040 164.633 M174.156 168.571 C 174.035 168.885,174.016 169.560,174.114 170.071 C 174.249 170.779,174.304 170.692,174.346 169.702 L 174.400 168.404 209.500 168.300 L 244.600 168.196 209.487 168.098 C 179.377 168.014,174.344 168.081,174.156 168.571 M146.840 170.833 C 146.862 172.025,147.027 173.450,147.206 174.000 C 147.399 174.592,147.442 173.776,147.311 172.000 C 147.047 168.436,146.784 167.783,146.840 170.833 M174.697 174.000 C 174.815 175.650,174.976 177.075,175.056 177.167 C 175.322 177.475,175.109 173.413,174.794 172.200 C 174.612 171.497,174.572 172.242,174.697 174.000 M147.655 176.493 C 147.625 177.313,147.789 179.203,148.019 180.693 C 148.249 182.182,148.692 185.200,149.002 187.400 C 149.381 190.093,149.505 190.550,149.379 188.800 C 149.276 187.370,149.000 184.760,148.765 183.000 C 148.530 181.240,148.197 178.720,148.024 177.400 C 147.783 175.561,147.697 175.349,147.655 176.493 M175.484 180.200 C 175.608 181.740,175.775 183.075,175.855 183.167 C 176.142 183.496,175.913 179.378,175.589 178.400 C 175.388 177.791,175.347 178.496,175.484 180.200 M176.126 185.369 C 176.170 186.300,176.426 187.013,176.756 187.121 C 177.127 187.243,177.206 187.133,176.992 186.787 C 176.816 186.502,176.533 185.714,176.362 185.035 C 176.067 183.863,176.055 183.881,176.126 185.369 M259.000 187.567 C 264.138 188.426,265.746 190.249,271.545 201.794 C 274.045 206.771,276.161 210.773,276.246 210.687 C 276.585 210.349,267.206 192.499,265.896 190.989 C 264.244 189.084,260.592 187.180,258.725 187.250 C 257.440 187.299,257.448 187.308,259.000 187.567 M149.628 193.633 C 149.644 194.825,149.816 196.160,150.011 196.600 C 150.235 197.105,150.278 196.366,150.128 194.600 C 149.838 191.181,149.590 190.702,149.628 193.633 M150.406 199.633 C 150.409 200.825,150.575 202.058,150.775 202.373 C 151.001 202.731,151.054 201.980,150.915 200.373 C 150.635 197.144,150.398 196.799,150.406 199.633 M151.246 203.705 C 151.221 204.093,151.354 204.723,151.541 205.105 C 151.729 205.487,152.197 206.456,152.581 207.258 C 153.710 209.612,155.543 211.558,157.627 212.614 C 160.464 214.051,160.611 213.800,157.818 212.289 C 155.434 210.999,152.402 207.468,152.401 205.980 C 152.400 205.639,152.237 205.189,152.039 204.980 C 151.840 204.771,151.591 204.240,151.485 203.800 C 151.328 203.145,151.284 203.128,151.246 203.705 M276.445 211.424 C 276.896 212.658,286.151 230.782,286.270 230.663 C 286.430 230.504,277.024 211.679,276.579 211.268 C 276.421 211.120,276.360 211.191,276.445 211.424 M162.003 214.061 C 162.991 214.204,182.639 214.220,205.666 214.096 L 247.531 213.871 269.350 257.495 C 293.934 306.651,291.355 302.330,298.095 305.657 C 298.477 305.846,299.377 305.979,300.095 305.954 L 301.400 305.908 300.000 305.576 C 299.230 305.393,298.150 305.130,297.600 304.991 C 297.050 304.853,295.520 303.988,294.200 303.070 L 291.800 301.400 269.800 257.458 L 247.800 213.516 204.003 213.658 C 179.915 213.736,161.015 213.917,162.003 214.061 M61.000 226.000 C 60.848 226.691,60.807 227.341,60.909 227.442 C 61.011 227.544,61.209 227.053,61.350 226.350 C 61.683 224.683,61.360 224.360,61.000 226.000 M60.218 230.618 C 60.065 231.639,60.022 232.555,60.122 232.655 C 60.222 232.755,60.429 232.002,60.582 230.982 C 60.735 229.961,60.778 229.045,60.678 228.945 C 60.578 228.845,60.371 229.598,60.218 230.618 M287.683 233.787 C 288.385 235.210,289.016 236.317,289.086 236.248 C 289.297 236.036,287.022 231.227,286.704 231.213 C 286.541 231.206,286.982 232.364,287.683 233.787 M59.701 236.200 C 59.705 237.080,59.787 237.393,59.883 236.895 C 59.979 236.398,59.975 235.678,59.875 235.295 C 59.775 234.913,59.696 235.320,59.701 236.200 M294.570 247.500 C 297.568 253.495,300.110 258.400,300.219 258.400 C 300.327 258.400,300.080 257.725,299.670 256.900 C 292.209 241.904,289.881 237.333,289.535 237.000 C 289.306 236.780,291.572 241.505,294.570 247.500 M59.328 240.800 C 59.328 242.230,59.401 242.815,59.489 242.100 C 59.578 241.385,59.578 240.215,59.489 239.500 C 59.401 238.785,59.328 239.370,59.328 240.800 M85.728 247.200 C 85.728 248.630,85.801 249.215,85.889 248.500 C 85.978 247.785,85.978 246.615,85.889 245.900 C 85.801 245.185,85.728 245.770,85.728 247.200 M59.314 254.200 C 59.317 255.300,59.395 255.703,59.487 255.095 C 59.579 254.486,59.577 253.586,59.482 253.095 C 59.387 252.603,59.311 253.100,59.314 254.200 M341.845 257.528 C 341.733 257.708,342.138 257.782,342.744 257.694 C 344.143 257.488,344.140 257.485,347.598 264.321 C 349.190 267.467,350.561 269.972,350.645 269.888 C 350.851 269.682,345.250 258.784,344.483 257.900 C 343.858 257.180,342.204 256.946,341.845 257.528 M300.470 259.100 C 301.726 261.865,302.837 264.000,303.018 264.000 C 303.144 264.000,303.173 263.865,303.083 263.700 C 302.993 263.535,302.421 262.365,301.812 261.100 C 301.204 259.835,300.622 258.800,300.520 258.800 C 300.417 258.800,300.395 258.935,300.470 259.100 M328.102 264.290 C 322.109 267.287,317.267 269.800,317.342 269.876 C 317.418 269.951,322.502 267.502,328.640 264.433 C 334.778 261.364,339.620 258.850,339.400 258.848 C 339.180 258.845,334.096 261.294,328.102 264.290 M303.245 264.605 C 303.739 265.897,305.732 269.602,305.862 269.471 C 306.018 269.316,303.744 264.792,303.316 264.404 C 303.192 264.292,303.160 264.382,303.245 264.605 M350.800 270.496 C 350.800 270.913,352.540 273.993,352.691 273.842 C 352.773 273.761,352.451 272.998,351.977 272.147 C 351.051 270.487,350.800 270.135,350.800 270.496 M306.809 271.800 C 306.806 272.020,307.211 272.708,307.708 273.330 L 308.612 274.460 310.301 273.558 C 311.230 273.062,311.924 272.590,311.842 272.509 C 311.761 272.427,311.037 272.730,310.235 273.180 C 308.420 274.200,308.632 274.239,307.646 272.700 C 307.188 271.985,306.811 271.580,306.809 271.800 M354.018 276.835 C 355.948 280.660,356.697 280.020,341.085 287.889 C 333.431 291.747,327.234 294.968,327.313 295.047 C 327.473 295.206,354.307 281.742,355.100 281.104 C 355.952 280.419,354.056 274.400,352.988 274.400 C 352.878 274.400,353.342 275.496,354.018 276.835 M232.646 285.386 C 232.291 285.928,232.000 286.482,232.000 286.616 C 232.000 288.993,220.242 302.599,213.900 307.561 C 212.415 308.722,211.200 309.769,211.200 309.885 C 211.200 310.138,211.336 310.038,215.207 306.921 C 221.614 301.764,231.720 289.591,233.325 285.100 C 233.677 284.115,233.403 284.230,232.646 285.386 M260.465 288.617 C 259.795 290.088,259.923 290.402,260.647 289.065 C 260.986 288.440,261.188 287.854,261.096 287.763 C 261.005 287.671,260.721 288.056,260.465 288.617 M323.898 296.503 C 322.632 297.177,321.661 297.794,321.740 297.873 C 321.872 298.006,326.367 295.766,326.762 295.371 C 327.231 294.903,325.961 295.404,323.898 296.503 M317.683 299.673 C 315.859 300.568,314.429 301.363,314.506 301.439 C 314.686 301.619,321.200 298.467,321.200 298.200 C 321.200 297.933,321.426 297.838,317.683 299.673 M107.600 300.925 C 107.600 300.994,108.185 301.579,108.900 302.225 L 110.200 303.400 109.025 302.100 C 107.930 300.888,107.600 300.616,107.600 300.925 M311.200 303.000 C 309.770 303.749,308.740 304.370,308.911 304.381 C 309.337 304.407,314.000 302.037,314.000 301.794 C 314.000 301.525,314.094 301.485,311.200 303.000 M307.000 304.871 C 306.340 305.092,305.170 305.416,304.400 305.591 L 303.000 305.908 304.476 305.954 C 305.288 305.979,306.064 305.820,306.200 305.600 C 306.336 305.380,306.786 305.200,307.200 305.200 C 307.614 305.200,308.064 305.020,308.200 304.800 C 308.336 304.580,308.392 304.415,308.324 304.434 C 308.256 304.453,307.660 304.650,307.000 304.871 M209.281 310.972 C 207.423 312.285,207.162 312.661,208.731 311.762 C 209.463 311.343,210.250 310.775,210.480 310.500 C 211.071 309.793,210.793 309.902,209.281 310.972 M244.175 314.900 L 243.000 316.200 244.300 315.025 C 245.015 314.379,245.600 313.794,245.600 313.725 C 245.600 313.416,245.270 313.688,244.175 314.900 M239.469 319.789 C 237.341 322.048,232.012 326.722,228.111 329.748 C 226.730 330.819,225.600 331.786,225.600 331.897 C 225.600 332.129,225.443 332.246,230.400 328.332 C 234.519 325.079,241.924 318.188,241.600 317.909 C 241.490 317.815,240.531 318.661,239.469 319.789 M93.200 324.125 C 93.200 324.194,93.785 324.779,94.500 325.425 L 95.800 326.600 94.625 325.300 C 93.530 324.088,93.200 323.816,93.200 324.125 M156.900 325.076 C 157.285 325.176,157.915 325.176,158.300 325.076 C 158.685 324.975,158.370 324.893,157.600 324.893 C 156.830 324.893,156.515 324.975,156.900 325.076 M100.144 329.909 C 100.460 330.421,102.800 332.153,102.800 331.875 C 102.800 331.776,102.139 331.191,101.332 330.575 C 100.524 329.959,99.989 329.659,100.144 329.909 M105.904 334.085 C 106.376 334.653,109.600 336.573,109.600 336.285 C 109.600 336.194,108.667 335.540,107.527 334.831 C 106.387 334.122,105.657 333.787,105.904 334.085 M112.200 337.919 C 112.850 338.578,115.678 340.056,115.887 339.846 C 115.993 339.741,115.117 339.172,113.940 338.584 C 112.763 337.995,111.980 337.696,112.200 337.919 M116.400 340.215 C 116.400 340.481,123.261 343.673,123.442 343.491 C 123.578 343.356,121.993 342.567,117.500 340.536 C 116.895 340.262,116.400 340.118,116.400 340.215 M124.800 344.123 C 126.075 344.856,130.809 346.524,131.018 346.315 C 131.105 346.228,129.877 345.693,128.288 345.126 C 123.807 343.526,123.711 343.498,124.800 344.123 M135.200 347.800 C 135.970 348.097,136.960 348.341,137.400 348.343 C 137.840 348.345,137.390 348.091,136.400 347.779 C 134.139 347.067,133.333 347.081,135.200 347.800 M142.400 349.605 C 142.730 349.816,143.525 349.991,144.167 349.994 C 145.714 350.002,145.377 349.771,143.400 349.468 C 142.310 349.301,141.991 349.345,142.400 349.605 M146.929 350.382 C 148.358 350.843,155.949 351.617,158.369 351.547 C 159.376 351.519,157.770 351.274,154.800 351.003 C 151.830 350.732,148.590 350.400,147.600 350.264 C 146.202 350.072,146.052 350.098,146.929 350.382 M179.800 350.400 L 178.200 350.686 179.800 350.715 C 180.680 350.731,181.760 350.589,182.200 350.400 L 183.000 350.056 182.200 350.085 C 181.760 350.101,180.680 350.242,179.800 350.400 M170.800 351.200 L 168.200 351.462 170.600 351.488 C 171.920 351.502,174.080 351.379,175.400 351.215 L 177.800 350.918 175.600 350.928 C 174.390 350.933,172.230 351.056,170.800 351.200 " stroke="none" fill="#6e6c69" fill-rule="evenodd"></path><path id="path3" d="M158.315 31.928 C 157.938 32.078,160.586 32.200,164.200 32.200 C 167.814 32.200,170.462 32.078,170.085 31.928 C 169.708 31.779,167.060 31.656,164.200 31.656 C 161.340 31.656,158.692 31.779,158.315 31.928 M154.400 32.870 C 151.153 34.219,149.622 34.955,149.764 35.097 C 149.853 35.186,150.523 34.950,151.253 34.573 C 151.983 34.195,153.665 33.566,154.990 33.174 C 156.316 32.782,156.950 32.460,156.400 32.458 C 155.850 32.456,154.950 32.641,154.400 32.870 M171.233 32.543 C 171.325 32.621,172.030 32.801,172.800 32.942 C 173.785 33.123,174.022 33.082,173.600 32.806 C 173.058 32.450,170.837 32.203,171.233 32.543 M178.800 35.255 C 180.010 35.941,181.750 37.110,182.667 37.851 C 183.584 38.593,184.456 39.200,184.605 39.200 C 184.754 39.200,184.135 38.581,183.229 37.824 C 181.532 36.406,177.573 33.997,176.951 34.004 C 176.758 34.006,177.590 34.569,178.800 35.255 M146.600 36.658 C 141.255 40.503,134.731 48.867,134.812 51.771 C 134.818 52.007,135.374 51.032,136.045 49.604 C 138.414 44.571,142.213 40.130,146.966 36.839 C 148.268 35.937,149.168 35.204,148.966 35.210 C 148.765 35.215,147.700 35.867,146.600 36.658 M192.023 48.489 C 192.011 48.648,192.434 49.728,192.965 50.889 C 193.495 52.050,194.021 53.270,194.133 53.600 C 194.307 54.113,194.341 54.109,194.368 53.572 C 194.399 52.960,192.070 47.912,192.023 48.489 M134.046 53.639 C 133.801 54.343,133.612 55.208,133.627 55.560 C 133.641 55.912,133.904 55.397,134.209 54.416 C 134.849 52.362,134.715 51.722,134.046 53.639 M194.628 55.400 C 194.746 56.060,195.005 57.770,195.203 59.200 L 195.562 61.800 195.358 58.622 C 195.245 56.874,194.986 55.164,194.783 54.822 C 194.524 54.385,194.478 54.557,194.628 55.400 M133.050 58.050 C 132.742 59.592,132.804 64.179,133.155 65.800 C 133.298 66.460,133.411 64.705,133.407 61.900 C 133.399 56.254,133.402 56.288,133.050 58.050 M194.987 67.387 C 194.831 68.844,194.789 70.123,194.895 70.228 C 195.001 70.334,195.210 69.223,195.360 67.760 C 195.510 66.297,195.551 65.018,195.452 64.918 C 195.352 64.819,195.143 65.929,194.987 67.387 M133.691 68.600 C 133.680 69.480,133.810 71.100,133.982 72.200 C 134.231 73.803,134.296 73.922,134.307 72.800 C 134.315 72.030,134.184 70.410,134.017 69.200 C 133.752 67.284,133.710 67.207,133.691 68.600 M193.794 72.691 C 192.652 75.710,190.566 79.445,188.581 82.024 C 187.576 83.331,186.843 84.400,186.953 84.400 C 188.162 84.400,195.443 71.709,194.674 70.941 C 194.587 70.854,194.191 71.641,193.794 72.691 M134.852 78.493 C 134.824 79.313,134.981 81.203,135.202 82.693 C 135.423 84.182,135.706 86.271,135.832 87.337 C 135.957 88.402,136.141 89.192,136.240 89.093 C 136.408 88.925,135.929 84.308,135.213 79.200 C 134.955 77.356,134.896 77.241,134.852 78.493 M183.389 87.160 C 182.955 87.578,181.255 88.748,179.610 89.760 C 177.966 90.772,176.799 91.600,177.017 91.600 C 177.236 91.600,178.077 91.150,178.886 90.600 C 179.695 90.050,180.476 89.600,180.622 89.600 C 180.767 89.600,181.790 88.880,182.895 88.000 C 184.000 87.120,184.741 86.400,184.541 86.400 C 184.341 86.400,183.823 86.742,183.389 87.160 M136.447 91.433 C 136.473 92.515,136.640 93.940,136.817 94.600 C 137.014 95.332,137.053 94.631,136.918 92.800 C 136.663 89.355,136.377 88.525,136.447 91.433 M175.200 92.074 C 174.650 92.307,173.660 92.637,173.000 92.808 C 172.115 93.037,172.023 93.129,172.651 93.159 C 173.515 93.201,176.400 92.151,176.400 91.795 C 176.400 91.559,176.437 91.551,175.200 92.074 M168.000 93.569 L 165.400 93.800 165.293 95.400 C 165.234 96.280,165.353 97.810,165.558 98.800 C 165.856 100.244,165.886 99.947,165.707 97.300 L 165.485 94.000 167.842 93.972 C 169.139 93.956,170.560 93.789,171.000 93.600 C 171.868 93.227,171.854 93.227,168.000 93.569 M137.223 97.433 C 137.236 98.295,137.403 99.720,137.594 100.600 C 137.852 101.786,137.884 101.424,137.719 99.200 C 137.477 95.947,137.186 94.910,137.223 97.433 M166.275 104.600 C 166.398 106.140,166.566 107.475,166.649 107.567 C 166.926 107.873,166.710 104.216,166.379 103.000 C 166.173 102.243,166.135 102.834,166.275 104.600 M138.260 106.200 C 138.367 107.740,138.623 109.864,138.828 110.920 C 139.032 111.976,139.218 113.596,139.240 114.520 C 139.262 115.444,139.435 116.650,139.626 117.200 C 139.865 117.892,139.910 117.523,139.770 116.000 C 139.113 108.851,137.892 100.924,138.260 106.200 M167.082 110.800 C 167.204 112.450,167.371 113.875,167.452 113.967 C 167.728 114.277,167.507 110.208,167.183 109.000 C 166.986 108.268,166.947 108.969,167.082 110.800 M167.884 117.000 C 168.008 118.540,168.175 119.875,168.255 119.967 C 168.542 120.296,168.313 116.178,167.989 115.200 C 167.788 114.591,167.747 115.296,167.884 117.000 M140.047 120.233 C 140.073 121.315,140.240 122.740,140.417 123.400 C 140.614 124.132,140.653 123.431,140.518 121.600 C 140.263 118.155,139.977 117.325,140.047 120.233 M168.676 123.000 C 168.795 124.540,169.039 126.430,169.217 127.200 C 169.433 128.134,169.469 127.668,169.324 125.800 C 169.205 124.260,168.961 122.370,168.783 121.600 C 168.567 120.666,168.531 121.132,168.676 123.000 M140.823 126.233 C 140.836 127.095,141.003 128.520,141.194 129.400 C 141.452 130.586,141.484 130.224,141.319 128.000 C 141.077 124.747,140.786 123.710,140.823 126.233 M169.838 132.200 C 170.169 136.360,170.911 140.589,171.364 140.894 C 171.604 141.056,187.730 141.147,207.200 141.097 L 242.600 141.006 207.011 140.803 L 171.423 140.600 170.927 137.400 C 170.655 135.640,170.255 133.210,170.039 132.000 L 169.647 129.800 169.838 132.200 M141.897 135.200 C 142.015 136.850,142.176 138.275,142.256 138.367 C 142.522 138.675,142.309 134.613,141.994 133.400 C 141.812 132.697,141.772 133.442,141.897 135.200 M142.840 142.833 C 142.862 144.025,143.027 145.450,143.206 146.000 C 143.399 146.592,143.442 145.776,143.311 144.000 C 143.047 140.436,142.784 139.783,142.840 142.833 M246.218 141.782 L 247.200 142.764 247.200 154.712 L 247.200 166.661 246.277 167.528 L 245.353 168.396 209.982 168.498 C 174.957 168.599,174.610 168.608,174.491 169.400 C 174.381 170.131,174.408 170.140,174.805 169.500 C 175.214 168.842,177.346 168.800,210.402 168.800 L 245.564 168.800 246.582 167.782 L 247.600 166.764 247.600 154.836 C 247.600 142.413,247.369 140.800,245.589 140.800 C 245.395 140.800,245.678 141.242,246.218 141.782 M143.647 149.033 C 143.673 150.115,143.840 151.540,144.017 152.200 C 144.214 152.932,144.253 152.231,144.118 150.400 C 143.863 146.955,143.577 146.125,143.647 149.033 M124.900 148.412 C 123.561 148.951,123.811 149.224,125.200 148.740 C 125.860 148.510,126.400 148.249,126.400 148.161 C 126.400 147.924,125.913 148.005,124.900 148.412 M131.062 149.800 C 131.196 150.680,131.372 151.475,131.453 151.567 C 131.756 151.910,131.529 149.768,131.181 149.000 C 130.929 148.442,130.893 148.685,131.062 149.800 M131.669 154.000 C 131.656 154.550,131.795 155.720,131.977 156.600 C 132.189 157.626,132.316 157.841,132.331 157.200 C 132.344 156.650,132.205 155.480,132.023 154.600 C 131.811 153.574,131.684 153.359,131.669 154.000 M144.423 155.033 C 144.436 155.895,144.603 157.320,144.794 158.200 C 145.052 159.386,145.084 159.024,144.919 156.800 C 144.677 153.547,144.386 152.510,144.423 155.033 M106.200 158.235 L 105.000 159.266 106.400 158.363 C 108.196 157.204,108.201 157.200,107.767 157.202 C 107.565 157.203,106.860 157.668,106.200 158.235 M132.493 160.000 C 132.493 160.770,132.575 161.085,132.676 160.700 C 132.776 160.315,132.776 159.685,132.676 159.300 C 132.575 158.915,132.493 159.230,132.493 160.000 M102.200 161.035 L 101.000 162.066 102.300 161.206 C 103.015 160.733,103.600 160.268,103.600 160.173 C 103.600 159.873,103.431 159.978,102.200 161.035 M145.497 164.000 C 145.615 165.650,145.776 167.075,145.856 167.167 C 146.122 167.475,145.909 163.413,145.594 162.200 C 145.412 161.497,145.372 162.242,145.497 164.000 M132.893 163.200 C 132.893 163.970,132.975 164.285,133.076 163.900 C 133.176 163.515,133.176 162.885,133.076 162.500 C 132.975 162.115,132.893 162.430,132.893 163.200 M91.789 169.700 L 89.000 172.600 91.900 169.811 C 94.594 167.220,94.983 166.800,94.689 166.800 C 94.628 166.800,93.323 168.105,91.789 169.700 M133.693 169.600 C 133.693 170.370,133.775 170.685,133.876 170.300 C 133.976 169.915,133.976 169.285,133.876 168.900 C 133.775 168.515,133.693 168.830,133.693 169.600 M146.440 171.633 C 146.462 172.825,146.627 174.250,146.806 174.800 C 146.999 175.392,147.042 174.576,146.911 172.800 C 146.647 169.236,146.384 168.583,146.440 171.633 M175.030 172.400 C 175.687 179.549,176.908 187.476,176.540 182.200 C 176.433 180.660,176.177 178.536,175.972 177.480 C 175.768 176.424,175.582 174.804,175.560 173.880 C 175.538 172.956,175.365 171.750,175.174 171.200 C 174.935 170.508,174.890 170.877,175.030 172.400 M133.980 172.690 C 133.871 173.619,133.933 174.227,134.120 174.040 C 134.306 173.854,134.396 173.094,134.319 172.351 C 134.183 171.033,134.175 171.042,133.980 172.690 M86.378 175.100 L 85.000 176.600 86.500 175.222 C 87.325 174.463,88.000 173.788,88.000 173.722 C 88.000 173.416,87.662 173.704,86.378 175.100 M147.247 177.833 C 147.273 178.915,147.440 180.340,147.617 181.000 C 147.814 181.732,147.853 181.031,147.718 179.200 C 147.463 175.755,147.177 174.925,147.247 177.833 M124.600 179.200 C 123.940 179.637,123.580 179.992,123.800 179.988 C 124.201 179.982,126.376 178.423,126.000 178.412 C 125.890 178.408,125.260 178.763,124.600 179.200 M148.023 183.833 C 148.036 184.695,148.203 186.120,148.394 187.000 C 148.652 188.186,148.684 187.824,148.519 185.600 C 148.277 182.347,147.986 181.310,148.023 183.833 M79.144 183.900 C 77.993 185.289,77.506 186.000,77.704 186.000 C 77.814 186.000,78.386 185.370,78.973 184.600 C 80.063 183.171,80.195 182.632,79.144 183.900 M176.800 186.500 C 176.800 186.665,195.115 186.757,217.500 186.705 C 239.885 186.653,251.630 186.563,243.600 186.506 C 205.235 186.231,176.800 186.228,176.800 186.500 M259.600 187.174 C 261.157 187.489,263.430 188.572,264.500 189.510 C 264.885 189.848,265.200 189.959,265.200 189.758 C 265.200 188.932,260.860 186.783,259.319 186.846 C 258.305 186.888,258.331 186.918,259.600 187.174 M109.392 191.300 L 105.400 195.400 109.500 191.408 C 111.755 189.212,113.600 187.367,113.600 187.308 C 113.600 187.018,113.101 187.492,109.392 191.300 M149.087 192.600 C 149.208 194.360,149.374 195.875,149.454 195.967 C 149.733 196.285,149.552 192.590,149.210 191.000 C 148.963 189.851,148.929 190.302,149.087 192.600 M267.037 192.200 C 267.397 192.750,267.757 193.200,267.837 193.200 C 267.917 193.200,267.778 192.750,267.527 192.200 C 267.277 191.650,266.916 191.200,266.727 191.200 C 266.537 191.200,266.676 191.650,267.037 192.200 M268.881 195.391 C 269.359 196.376,269.819 197.114,269.903 197.030 C 270.084 196.849,268.468 193.600,268.197 193.600 C 268.094 193.600,268.402 194.406,268.881 195.391 M270.279 198.300 C 270.567 199.094,271.600 200.697,271.600 200.350 C 271.600 200.002,270.363 197.600,270.183 197.600 C 270.096 197.600,270.139 197.915,270.279 198.300 M150.038 200.200 C 150.024 201.300,150.165 202.440,150.351 202.734 C 150.549 203.046,150.616 202.382,150.513 201.134 C 150.271 198.203,150.068 197.805,150.038 200.200 M272.481 202.591 C 272.959 203.576,273.419 204.314,273.503 204.230 C 273.684 204.049,272.068 200.800,271.797 200.800 C 271.694 200.800,272.002 201.606,272.481 202.591 M151.657 206.400 C 151.658 207.176,155.253 212.105,155.915 212.238 C 156.193 212.294,156.231 212.247,156.000 212.133 C 155.569 211.921,152.415 207.483,151.928 206.403 C 151.688 205.870,151.656 205.870,151.657 206.400 M275.200 208.000 C 275.649 208.880,276.106 209.600,276.216 209.600 C 276.326 209.600,276.049 208.880,275.600 208.000 C 275.151 207.120,274.694 206.400,274.584 206.400 C 274.474 206.400,274.751 207.120,275.200 208.000 M276.411 210.109 C 276.396 210.532,279.564 216.800,279.792 216.800 C 280.068 216.800,279.707 215.991,277.987 212.751 C 277.126 211.128,276.416 209.939,276.411 210.109 M159.600 213.994 C 159.930 214.211,160.635 214.391,161.167 214.394 C 162.451 214.402,162.125 214.175,160.400 213.858 C 159.415 213.677,159.178 213.718,159.600 213.994 M202.707 214.290 C 203.426 214.379,204.506 214.377,205.107 214.286 C 205.708 214.195,205.120 214.122,203.800 214.124 C 202.480 214.126,201.988 214.201,202.707 214.290 M241.400 214.294 C 246.421 214.396,247.600 214.528,247.600 214.987 C 247.600 215.298,247.778 215.663,247.995 215.797 C 248.246 215.952,248.266 215.707,248.049 215.120 C 247.715 214.215,247.610 214.200,241.454 214.184 L 235.199 214.169 241.400 214.294 M170.326 214.700 C 174.576 214.764,181.416 214.764,185.526 214.699 C 189.637 214.634,186.160 214.581,177.800 214.581 C 169.440 214.582,166.077 214.635,170.326 214.700 M280.000 217.352 C 280.000 217.714,284.050 225.600,284.236 225.600 C 284.483 225.600,283.884 224.273,282.069 220.800 C 280.203 217.228,280.000 216.890,280.000 217.352 M62.229 218.629 C 62.081 219.215,62.038 219.772,62.132 219.866 C 62.227 219.960,62.424 219.558,62.571 218.971 C 62.719 218.385,62.762 217.828,62.668 217.734 C 62.573 217.640,62.376 218.042,62.229 218.629 M61.400 222.000 C 61.248 222.691,61.207 223.341,61.309 223.442 C 61.411 223.544,61.609 223.053,61.750 222.350 C 62.083 220.683,61.760 220.360,61.400 222.000 M251.200 222.050 C 251.200 222.398,252.437 224.800,252.617 224.800 C 252.704 224.800,252.661 224.485,252.521 224.100 C 252.233 223.306,251.200 221.703,251.200 222.050 M60.622 225.822 C 60.472 226.625,60.428 227.362,60.526 227.460 C 60.624 227.557,60.827 226.981,60.978 226.178 C 61.128 225.375,61.172 224.638,61.074 224.540 C 60.976 224.443,60.773 225.019,60.622 225.822 M284.400 226.137 C 284.400 226.487,287.657 232.800,287.838 232.800 C 288.072 232.800,287.502 231.504,286.080 228.800 C 284.656 226.091,284.400 225.686,284.400 226.137 M254.800 229.250 C 254.800 229.598,256.037 232.000,256.217 232.000 C 256.304 232.000,256.261 231.685,256.121 231.300 C 255.833 230.506,254.800 228.903,254.800 229.250 M59.693 232.000 C 59.693 232.770,59.775 233.085,59.876 232.700 C 59.976 232.315,59.976 231.685,59.876 231.300 C 59.775 230.915,59.693 231.230,59.693 232.000 M87.246 233.667 C 87.221 234.034,87.096 234.664,86.970 235.067 C 86.752 235.762,86.763 235.763,87.197 235.087 C 87.448 234.696,87.573 234.066,87.473 233.687 C 87.311 233.068,87.288 233.066,87.246 233.667 M59.301 235.400 C 59.305 236.280,59.387 236.593,59.483 236.095 C 59.579 235.598,59.575 234.878,59.475 234.495 C 59.375 234.113,59.296 234.520,59.301 235.400 M288.867 235.000 C 288.974 235.220,289.743 236.805,290.576 238.521 C 291.409 240.238,292.164 241.569,292.254 241.479 C 292.431 241.302,289.435 235.282,288.959 234.857 C 288.801 234.715,288.759 234.780,288.867 235.000 M58.743 242.700 C 58.648 245.285,58.671 249.290,58.796 251.600 C 58.965 254.711,59.037 253.492,59.076 246.900 C 59.133 237.067,59.010 235.512,58.743 242.700 M86.524 241.400 C 86.526 242.720,86.601 243.212,86.690 242.493 C 86.779 241.774,86.777 240.694,86.686 240.093 C 86.595 239.492,86.522 240.080,86.524 241.400 M244.400 239.490 C 244.950 239.589,245.845 240.059,246.388 240.535 C 247.270 241.308,247.313 241.315,246.788 240.600 C 245.935 239.440,245.520 239.206,244.400 239.261 L 243.400 239.309 244.400 239.490 M262.000 243.650 C 262.000 243.998,263.237 246.400,263.417 246.400 C 263.504 246.400,263.461 246.085,263.321 245.700 C 263.033 244.906,262.000 243.303,262.000 243.650 M86.144 247.600 C 86.144 249.690,86.212 250.545,86.294 249.500 C 86.376 248.455,86.376 246.745,86.294 245.700 C 86.212 244.655,86.144 245.510,86.144 247.600 M294.274 245.848 C 294.690 246.933,296.785 250.622,296.793 250.284 C 296.802 249.899,294.379 245.200,294.172 245.200 C 294.091 245.200,294.137 245.492,294.274 245.848 M86.501 253.400 C 86.505 254.280,86.587 254.593,86.683 254.095 C 86.779 253.598,86.775 252.878,86.675 252.495 C 86.575 252.113,86.496 252.520,86.501 253.400 M266.400 252.450 C 266.400 252.798,267.637 255.200,267.817 255.200 C 267.904 255.200,267.861 254.885,267.721 254.500 C 267.433 253.706,266.400 252.103,266.400 252.450 M302.981 263.163 L 308.401 273.997 316.581 269.913 C 321.081 267.666,324.702 265.769,324.629 265.696 C 324.556 265.623,320.906 267.349,316.517 269.532 L 308.538 273.500 303.369 263.118 C 300.526 257.407,298.056 252.643,297.881 252.532 C 297.705 252.420,300.001 257.204,302.981 263.163 M241.701 257.000 C 241.705 257.880,241.787 258.193,241.883 257.695 C 241.979 257.198,241.975 256.478,241.875 256.095 C 241.775 255.713,241.696 256.120,241.701 257.000 M254.400 256.149 C 254.400 256.581,255.989 259.600,256.216 259.600 C 256.326 259.600,256.030 258.835,255.559 257.900 C 254.632 256.061,254.400 255.711,254.400 256.149 M340.085 257.791 C 339.142 258.289,338.247 258.820,338.097 258.970 C 337.702 259.365,339.186 258.773,340.712 257.927 C 343.351 256.465,344.498 257.115,346.620 261.276 C 347.258 262.528,347.848 263.486,347.929 263.404 C 348.188 263.145,345.197 257.887,344.483 257.344 C 343.506 256.602,342.056 256.749,340.085 257.791 M59.309 258.800 C 59.309 259.790,59.387 260.195,59.482 259.700 C 59.578 259.205,59.578 258.395,59.482 257.900 C 59.387 257.405,59.309 257.810,59.309 258.800 M87.062 259.000 C 87.196 259.880,87.372 260.675,87.453 260.767 C 87.756 261.110,87.529 258.968,87.181 258.200 C 86.929 257.642,86.893 257.885,87.062 259.000 M270.000 259.650 C 270.000 259.998,271.237 262.400,271.417 262.400 C 271.504 262.400,271.461 262.085,271.321 261.700 C 271.033 260.906,270.000 259.303,270.000 259.650 M334.100 260.826 C 333.165 261.265,332.400 261.719,332.400 261.835 C 332.400 261.952,332.535 261.977,332.700 261.891 C 332.865 261.805,333.675 261.426,334.500 261.048 C 335.325 260.671,336.000 260.281,336.000 260.181 C 336.000 259.933,336.016 259.928,334.100 260.826 M59.693 262.000 C 59.693 262.770,59.775 263.085,59.876 262.700 C 59.976 262.315,59.976 261.685,59.876 261.300 C 59.775 260.915,59.693 261.230,59.693 262.000 M258.885 265.385 C 259.808 267.247,260.628 268.705,260.707 268.626 C 260.885 268.449,257.665 262.000,257.398 262.000 C 257.293 262.000,257.961 263.523,258.885 265.385 M326.700 264.427 C 325.875 264.863,325.200 265.308,325.200 265.418 C 325.200 265.596,328.359 264.119,328.767 263.751 C 329.227 263.334,328.025 263.728,326.700 264.427 M351.802 271.518 C 353.504 274.883,354.971 277.563,355.060 277.474 C 355.247 277.287,349.687 266.401,349.098 265.800 C 348.882 265.580,350.099 268.153,351.802 271.518 M60.468 267.000 C 60.462 267.440,60.611 268.160,60.800 268.600 C 61.238 269.619,61.238 268.568,60.800 267.200 C 60.543 266.396,60.477 266.357,60.468 267.000 M61.256 270.800 C 61.256 271.130,61.411 271.760,61.600 272.200 C 61.817 272.704,61.944 272.778,61.944 272.400 C 61.944 272.070,61.789 271.440,61.600 271.000 C 61.383 270.496,61.256 270.422,61.256 270.800 M262.481 272.591 C 262.959 273.576,263.419 274.314,263.503 274.230 C 263.684 274.049,262.068 270.800,261.797 270.800 C 261.694 270.800,262.002 271.606,262.481 272.591 M238.044 272.444 C 237.798 273.151,237.666 273.800,237.752 273.885 C 237.838 273.971,238.109 273.462,238.356 272.756 C 238.602 272.049,238.734 271.400,238.648 271.315 C 238.562 271.229,238.291 271.738,238.044 272.444 M62.056 274.000 C 62.056 274.330,62.211 274.960,62.400 275.400 C 62.617 275.904,62.744 275.978,62.744 275.600 C 62.744 275.270,62.589 274.640,62.400 274.200 C 62.183 273.696,62.056 273.622,62.056 274.000 M264.600 278.200 C 264.600 279.148,264.735 279.840,264.900 279.738 C 265.065 279.636,265.200 278.944,265.200 278.200 C 265.200 277.456,265.065 276.764,264.900 276.662 C 264.735 276.560,264.600 277.252,264.600 278.200 M355.518 279.225 C 355.747 280.782,355.197 281.370,352.147 282.825 C 350.746 283.494,349.600 284.132,349.600 284.244 C 349.600 284.356,349.735 284.382,349.900 284.302 C 350.065 284.221,351.100 283.726,352.200 283.200 C 355.476 281.634,357.192 279.184,355.672 278.245 C 355.492 278.133,355.423 278.574,355.518 279.225 M234.875 280.219 C 233.670 282.700,233.805 283.047,235.046 280.661 C 235.601 279.594,235.987 278.653,235.903 278.570 C 235.819 278.486,235.357 279.228,234.875 280.219 M232.628 284.661 C 232.056 285.684,231.652 286.585,231.729 286.663 C 231.807 286.740,232.361 285.903,232.960 284.802 C 233.560 283.701,233.964 282.800,233.859 282.800 C 233.754 282.800,233.200 283.637,232.628 284.661 M344.907 286.482 C 342.665 287.627,340.892 288.626,340.968 288.702 C 341.122 288.855,349.200 284.777,349.200 284.546 C 349.200 284.296,349.087 284.347,344.907 286.482 M261.680 286.880 C 261.201 288.014,260.872 289.006,260.950 289.083 C 261.028 289.161,261.488 288.301,261.973 287.173 C 262.459 286.045,262.787 285.054,262.703 284.970 C 262.620 284.886,262.159 285.746,261.680 286.880 M97.949 288.200 C 98.165 288.640,98.634 289.360,98.993 289.800 L 99.644 290.600 99.251 289.800 C 99.035 289.360,98.566 288.640,98.207 288.200 L 97.556 287.400 97.949 288.200 M230.153 288.900 C 228.776 291.236,228.686 291.435,229.387 290.600 C 230.200 289.632,230.900 288.400,230.638 288.400 C 230.533 288.400,230.315 288.625,230.153 288.900 M284.400 288.450 C 284.400 288.798,285.637 291.200,285.817 291.200 C 285.904 291.200,285.861 290.885,285.721 290.500 C 285.433 289.706,284.400 288.103,284.400 288.450 M338.889 289.465 C 338.168 289.820,337.643 290.177,337.724 290.257 C 337.895 290.428,340.400 289.224,340.400 288.971 C 340.400 288.729,340.347 288.746,338.889 289.465 M259.872 291.019 C 258.932 292.989,259.064 293.324,260.047 291.462 C 260.493 290.616,260.787 289.854,260.701 289.767 C 260.614 289.681,260.241 290.244,259.872 291.019 M334.400 291.800 C 332.970 292.549,331.940 293.170,332.111 293.181 C 332.537 293.207,337.200 290.837,337.200 290.594 C 337.200 290.325,337.294 290.285,334.400 291.800 M100.575 292.132 C 101.191 292.939,101.776 293.600,101.875 293.600 C 102.153 293.600,100.421 291.260,99.909 290.944 C 99.659 290.789,99.959 291.324,100.575 292.132 M227.104 293.244 C 226.501 294.100,226.087 294.800,226.183 294.800 C 226.469 294.800,228.526 291.992,228.356 291.833 C 228.270 291.754,227.707 292.388,227.104 293.244 M326.300 295.824 C 323.495 297.244,321.200 298.489,321.200 298.590 C 321.200 298.946,330.563 294.314,331.380 293.554 C 332.026 292.953,331.559 293.161,326.300 295.824 M288.000 295.650 C 288.000 295.998,289.237 298.400,289.417 298.400 C 289.504 298.400,289.461 298.085,289.321 297.700 C 289.033 296.906,288.000 295.303,288.000 295.650 M105.200 297.800 C 105.946 298.570,106.647 299.200,106.757 299.200 C 106.867 299.200,106.346 298.570,105.600 297.800 C 104.854 297.030,104.153 296.400,104.043 296.400 C 103.933 296.400,104.454 297.030,105.200 297.800 M220.793 300.634 C 218.487 302.963,215.115 306.038,213.300 307.468 C 211.485 308.897,210.000 310.153,210.000 310.259 C 210.000 310.364,211.395 309.368,213.100 308.044 C 215.826 305.927,225.715 296.400,225.186 296.400 C 225.076 296.400,223.099 298.306,220.793 300.634 M289.600 298.916 C 289.600 300.084,294.216 304.760,295.399 304.790 C 295.618 304.795,294.940 304.190,293.891 303.445 C 292.843 302.699,291.517 301.394,290.946 300.545 C 289.736 298.746,289.600 298.581,289.600 298.916 M316.471 300.778 C 314.168 302.018,313.354 302.618,314.612 302.148 C 315.372 301.864,318.826 300.042,319.167 299.745 C 319.741 299.244,318.279 299.805,316.471 300.778 M111.583 304.100 C 113.241 305.866,113.600 306.184,113.600 305.883 C 113.600 305.819,112.745 304.964,111.700 303.983 L 109.800 302.200 111.583 304.100 M309.200 304.515 C 305.737 306.283,300.740 306.703,297.688 305.482 C 295.599 304.646,295.443 304.946,297.500 305.843 C 299.387 306.666,304.494 306.782,306.400 306.047 C 308.766 305.133,310.400 304.371,310.400 304.181 C 310.400 303.923,310.315 303.946,309.200 304.515 M114.800 306.933 C 114.800 307.043,115.520 307.703,116.400 308.400 C 117.280 309.097,118.000 309.577,118.000 309.467 C 118.000 309.357,117.280 308.697,116.400 308.000 C 115.520 307.303,114.800 306.823,114.800 306.933 M78.391 308.388 C 78.857 309.041,79.442 309.702,79.691 309.856 C 79.941 310.011,79.641 309.476,79.025 308.668 C 77.688 306.915,77.184 306.692,78.391 308.388 M119.967 310.945 C 120.500 311.601,122.000 312.593,122.000 312.289 C 122.000 312.213,121.415 311.722,120.700 311.199 C 119.896 310.610,119.616 310.513,119.967 310.945 M207.793 311.456 C 205.752 312.809,205.032 313.523,206.626 312.614 C 208.030 311.814,209.901 310.422,209.593 310.409 C 209.479 310.404,208.669 310.875,207.793 311.456 M240.230 319.528 L 234.260 325.800 239.875 320.234 C 244.539 315.611,246.865 313.075,246.303 313.228 C 246.247 313.244,243.514 316.079,240.230 319.528 M200.700 315.627 C 199.875 316.063,199.200 316.508,199.200 316.618 C 199.200 316.727,199.920 316.449,200.800 316.000 C 201.680 315.551,202.400 315.097,202.400 314.992 C 202.400 314.730,202.397 314.731,200.700 315.627 M89.200 321.000 C 91.060 322.870,92.672 324.400,92.782 324.400 C 92.892 324.400,91.460 322.870,89.600 321.000 C 87.740 319.130,86.128 317.600,86.018 317.600 C 85.908 317.600,87.340 319.130,89.200 321.000 M149.200 323.600 C 149.750 323.776,150.560 323.920,151.000 323.920 C 151.633 323.920,151.592 323.854,150.800 323.600 C 150.250 323.424,149.440 323.280,149.000 323.280 C 148.367 323.280,148.408 323.346,149.200 323.600 M154.600 324.402 C 156.217 324.758,159.074 324.927,158.767 324.649 C 158.675 324.566,157.340 324.398,155.800 324.274 C 153.648 324.102,153.370 324.131,154.600 324.402 M170.800 324.400 C 169.429 324.689,169.425 324.695,170.600 324.724 C 171.260 324.741,172.520 324.605,173.400 324.423 L 175.000 324.092 173.600 324.099 C 172.830 324.102,171.570 324.238,170.800 324.400 M93.600 324.925 C 93.600 324.994,94.185 325.579,94.900 326.225 L 96.200 327.400 95.025 326.100 C 93.930 324.888,93.600 324.616,93.600 324.925 M231.789 327.431 L 229.800 329.261 231.900 327.568 C 233.784 326.049,234.238 325.600,233.889 325.600 C 233.828 325.600,232.883 326.424,231.789 327.431 M97.800 328.612 C 99.493 330.159,101.600 331.760,101.600 331.499 C 101.600 331.414,100.385 330.400,98.900 329.247 C 97.408 328.087,96.916 327.804,97.800 328.612 M227.800 330.644 L 226.200 332.076 227.900 330.804 C 229.363 329.710,229.891 329.183,229.500 329.206 C 229.445 329.209,228.680 329.856,227.800 330.644 M102.000 331.746 C 102.000 331.856,102.540 332.330,103.200 332.800 C 103.860 333.270,104.400 333.564,104.400 333.454 C 104.400 333.344,103.860 332.870,103.200 332.400 C 102.540 331.930,102.000 331.636,102.000 331.746 M107.200 335.323 C 107.200 335.871,119.454 342.680,119.806 342.327 C 119.884 342.249,118.205 341.304,116.074 340.227 C 113.943 339.150,111.750 337.970,111.200 337.605 C 109.229 336.296,107.200 335.138,107.200 335.323 M219.096 336.550 C 217.175 337.731,216.638 338.289,218.200 337.481 C 219.454 336.833,221.145 335.626,220.800 335.625 C 220.690 335.625,219.923 336.041,219.096 336.550 M215.500 338.629 C 214.005 339.440,214.096 339.778,215.600 339.000 C 216.260 338.659,216.800 338.294,216.800 338.190 C 216.800 337.932,216.757 337.947,215.500 338.629 M211.200 341.000 C 209.770 341.749,208.740 342.370,208.911 342.381 C 209.337 342.407,214.000 340.037,214.000 339.794 C 214.000 339.525,214.094 339.485,211.200 341.000 M122.800 343.710 C 123.116 344.042,128.091 346.002,128.569 345.983 C 128.806 345.974,127.962 345.535,126.692 345.008 C 124.094 343.928,122.502 343.398,122.800 343.710 M204.400 344.200 C 203.850 344.514,203.580 344.772,203.800 344.772 C 204.020 344.772,204.650 344.514,205.200 344.200 C 205.750 343.886,206.020 343.628,205.800 343.628 C 205.580 343.628,204.950 343.886,204.400 344.200 M133.000 347.600 C 133.440 347.789,134.070 347.944,134.400 347.944 C 134.778 347.944,134.704 347.817,134.200 347.600 C 133.760 347.411,133.130 347.256,132.800 347.256 C 132.422 347.256,132.496 347.383,133.000 347.600 M135.600 348.382 C 135.930 348.605,136.545 348.791,136.967 348.794 C 137.990 348.802,137.671 348.573,136.200 348.244 C 135.324 348.048,135.162 348.085,135.600 348.382 M192.000 348.400 C 191.176 348.664,191.141 348.726,191.800 348.754 C 192.240 348.773,192.870 348.613,193.200 348.400 C 193.901 347.947,193.414 347.947,192.000 348.400 M138.600 349.181 C 139.368 349.529,141.510 349.756,141.167 349.453 C 141.075 349.372,140.280 349.196,139.400 349.062 C 138.285 348.893,138.042 348.929,138.600 349.181 M188.800 349.200 C 187.996 349.457,187.957 349.523,188.600 349.532 C 189.040 349.538,189.760 349.389,190.200 349.200 C 191.219 348.762,190.168 348.762,188.800 349.200 M185.000 350.000 C 183.911 350.277,183.893 350.307,184.800 350.325 C 185.350 350.335,186.160 350.189,186.600 350.000 C 187.586 349.576,186.666 349.576,185.000 350.000 M149.000 351.206 C 150.601 351.554,153.881 351.731,153.567 351.452 C 153.475 351.371,152.050 351.204,150.400 351.081 C 148.176 350.916,147.814 350.948,149.000 351.206 M179.505 351.083 C 180.002 351.179,180.722 351.175,181.105 351.075 C 181.487 350.975,181.080 350.896,180.200 350.901 C 179.320 350.905,179.007 350.987,179.505 351.083 M176.500 351.476 C 176.885 351.576,177.515 351.576,177.900 351.476 C 178.285 351.375,177.970 351.293,177.200 351.293 C 176.430 351.293,176.115 351.375,176.500 351.476 M155.705 351.887 C 156.314 351.979,157.214 351.977,157.705 351.882 C 158.197 351.787,157.700 351.711,156.600 351.714 C 155.500 351.717,155.097 351.795,155.705 351.887 M170.500 351.887 C 171.105 351.978,172.095 351.978,172.700 351.887 C 173.305 351.795,172.810 351.720,171.600 351.720 C 170.390 351.720,169.895 351.795,170.500 351.887 M161.300 352.297 C 162.785 352.374,165.215 352.374,166.700 352.297 C 168.185 352.220,166.970 352.157,164.000 352.157 C 161.030 352.157,159.815 352.220,161.300 352.297 " stroke="none" fill="#9b8858" fill-rule="evenodd"></path><path id="path4" d="M185.600 40.600 C 186.346 41.370,187.047 42.000,187.157 42.000 C 187.267 42.000,186.746 41.370,186.000 40.600 C 185.254 39.830,184.553 39.200,184.443 39.200 C 184.333 39.200,184.854 39.830,185.600 40.600 M195.309 63.200 C 195.309 64.190,195.387 64.595,195.482 64.100 C 195.578 63.605,195.578 62.795,195.482 62.300 C 195.387 61.805,195.309 62.210,195.309 63.200 M186.000 84.600 C 185.028 85.590,184.323 86.400,184.433 86.400 C 184.543 86.400,185.428 85.590,186.400 84.600 C 187.372 83.610,188.077 82.800,187.967 82.800 C 187.857 82.800,186.972 83.610,186.000 84.600 M246.978 154.800 C 246.978 161.510,247.032 164.255,247.099 160.900 C 247.166 157.545,247.166 152.055,247.099 148.700 C 247.032 145.345,246.978 148.090,246.978 154.800 M103.800 160.235 L 102.600 161.266 103.900 160.406 C 104.615 159.933,105.200 159.468,105.200 159.373 C 105.200 159.073,105.031 159.178,103.800 160.235 M91.775 170.100 L 90.600 171.400 91.900 170.225 C 92.615 169.579,93.200 168.994,93.200 168.925 C 93.200 168.616,92.870 168.888,91.775 170.100 M83.578 178.700 L 82.200 180.200 83.700 178.822 C 85.096 177.538,85.384 177.200,85.078 177.200 C 85.012 177.200,84.337 177.875,83.578 178.700 M80.370 182.700 C 79.421 183.965,78.913 184.783,79.241 184.518 C 79.915 183.975,82.546 180.400,82.273 180.400 C 82.176 180.400,81.319 181.435,80.370 182.700 M197.531 187.100 C 208.822 187.159,227.182 187.159,238.331 187.100 C 249.479 187.041,240.240 186.993,217.800 186.993 C 195.360 186.993,186.239 187.041,197.531 187.100 M109.188 191.100 L 106.600 193.800 109.300 191.212 C 110.785 189.788,112.000 188.573,112.000 188.512 C 112.000 188.217,111.593 188.592,109.188 191.100 M73.000 193.600 C 72.659 194.260,72.469 194.800,72.579 194.800 C 72.689 194.800,73.059 194.260,73.400 193.600 C 73.741 192.940,73.931 192.400,73.821 192.400 C 73.711 192.400,73.341 192.940,73.000 193.600 M104.434 196.153 L 103.469 197.400 104.613 196.312 C 105.243 195.714,105.677 195.153,105.579 195.065 C 105.480 194.977,104.965 195.467,104.434 196.153 M101.053 200.500 L 100.333 201.800 101.158 200.800 C 101.889 199.913,102.214 199.200,101.886 199.200 C 101.824 199.200,101.449 199.785,101.053 200.500 M98.784 203.623 C 98.305 204.296,97.979 204.913,98.061 204.994 C 98.143 205.076,98.614 204.526,99.108 203.771 C 100.223 202.071,99.971 201.956,98.784 203.623 M96.600 207.200 C 96.259 207.860,96.069 208.400,96.179 208.400 C 96.289 208.400,96.659 207.860,97.000 207.200 C 97.341 206.540,97.531 206.000,97.421 206.000 C 97.311 206.000,96.941 206.540,96.600 207.200 M191.519 214.298 C 193.344 214.372,196.224 214.372,197.919 214.297 C 199.614 214.222,198.120 214.161,194.600 214.162 C 191.080 214.162,189.694 214.224,191.519 214.298 M213.326 214.300 C 217.466 214.365,224.126 214.365,228.126 214.299 C 232.127 214.234,228.740 214.181,220.600 214.181 C 212.460 214.181,209.187 214.234,213.326 214.300 M87.293 232.000 C 87.293 232.770,87.375 233.085,87.476 232.700 C 87.576 232.315,87.576 231.685,87.476 231.300 C 87.375 230.915,87.293 231.230,87.293 232.000 M86.514 237.400 C 86.517 238.500,86.595 238.903,86.687 238.295 C 86.779 237.686,86.777 236.786,86.682 236.295 C 86.587 235.803,86.511 236.300,86.514 237.400 M86.114 242.200 C 86.117 243.300,86.195 243.703,86.287 243.095 C 86.379 242.486,86.377 241.586,86.282 241.095 C 86.187 240.603,86.111 241.100,86.114 242.200 M242.534 243.600 C 242.534 245.250,242.605 245.925,242.691 245.100 C 242.778 244.275,242.778 242.925,242.691 242.100 C 242.605 241.275,242.534 241.950,242.534 243.600 M58.901 246.600 C 58.905 247.480,58.987 247.793,59.083 247.295 C 59.179 246.798,59.175 246.078,59.075 245.695 C 58.975 245.313,58.896 245.720,58.901 246.600 M242.542 250.200 C 242.541 252.180,242.608 253.040,242.692 252.112 C 242.776 251.184,242.777 249.564,242.695 248.512 C 242.612 247.460,242.543 248.220,242.542 250.200 M86.509 256.400 C 86.509 257.390,86.587 257.795,86.682 257.300 C 86.778 256.805,86.778 255.995,86.682 255.500 C 86.587 255.005,86.509 255.410,86.509 256.400 M87.206 261.633 C 87.209 262.165,87.389 262.870,87.606 263.200 C 87.882 263.622,87.923 263.385,87.742 262.400 C 87.425 260.675,87.198 260.349,87.206 261.633 M106.600 299.600 C 107.459 300.480,108.252 301.200,108.362 301.200 C 108.472 301.200,107.859 300.480,107.000 299.600 C 106.141 298.720,105.348 298.000,105.238 298.000 C 105.128 298.000,105.741 298.720,106.600 299.600 M221.775 300.100 L 220.600 301.400 221.900 300.225 C 223.112 299.130,223.384 298.800,223.075 298.800 C 223.006 298.800,222.421 299.385,221.775 300.100 M254.153 301.700 C 252.776 304.036,252.686 304.235,253.387 303.400 C 254.200 302.432,254.900 301.200,254.638 301.200 C 254.533 301.200,254.315 301.425,254.153 301.700 M111.000 304.000 C 111.859 304.880,112.652 305.600,112.762 305.600 C 112.872 305.600,112.259 304.880,111.400 304.000 C 110.541 303.120,109.748 302.400,109.638 302.400 C 109.528 302.400,110.141 303.120,111.000 304.000 M218.175 303.700 L 217.000 305.000 218.300 303.825 C 219.015 303.179,219.600 302.594,219.600 302.525 C 219.600 302.216,219.270 302.488,218.175 303.700 M77.191 306.388 C 77.657 307.041,78.242 307.702,78.491 307.856 C 78.741 308.011,78.441 307.476,77.825 306.668 C 76.488 304.915,75.984 304.692,77.191 306.388 M113.235 306.100 C 113.328 306.155,114.033 306.740,114.802 307.400 L 116.200 308.600 115.025 307.300 C 114.379 306.585,113.674 306.000,113.458 306.000 C 113.243 306.000,113.143 306.045,113.235 306.100 M87.000 318.400 C 87.859 319.280,88.652 320.000,88.762 320.000 C 88.872 320.000,88.259 319.280,87.400 318.400 C 86.541 317.520,85.748 316.800,85.638 316.800 C 85.528 316.800,86.141 317.520,87.000 318.400 M92.000 323.400 C 92.746 324.170,93.447 324.800,93.557 324.800 C 93.667 324.800,93.146 324.170,92.400 323.400 C 91.654 322.630,90.953 322.000,90.843 322.000 C 90.733 322.000,91.254 322.630,92.000 323.400 M161.500 325.097 C 163.095 325.173,165.705 325.173,167.300 325.097 C 168.895 325.021,167.590 324.959,164.400 324.959 C 161.210 324.959,159.905 325.021,161.500 325.097 M159.491 351.889 C 160.201 351.977,161.461 351.979,162.291 351.892 C 163.121 351.805,162.540 351.733,161.000 351.731 C 159.460 351.729,158.781 351.800,159.491 351.889 M166.500 351.887 C 167.105 351.978,168.095 351.978,168.700 351.887 C 169.305 351.795,168.810 351.720,167.600 351.720 C 166.390 351.720,165.895 351.795,166.500 351.887 " stroke="none" fill="#7e6c46" fill-rule="evenodd"></path></g></svg>